<?xml version="1.0" encoding="UTF-8"?>
<svg version="1.1" xmlns="http://www.w3.org/2000/svg" width="512" height="512">
<path d="M0 0 C1.28871506 -0.0159874 2.57743011 -0.03197479 3.90519714 -0.04844666 C5.30569053 -0.0548258 6.7061887 -0.06021777 8.10668945 -0.06469727 C9.55532417 -0.07367451 11.003958 -0.08279654 12.45259094 -0.09205627 C15.48794804 -0.10852299 18.5231952 -0.11624159 21.55859375 -0.11914062 C25.42425327 -0.12450889 29.2888601 -0.16213249 33.15422344 -0.20788479 C36.14764551 -0.2378225 39.14081977 -0.24486783 42.13437843 -0.24586678 C43.55798962 -0.25003944 44.98160359 -0.26235344 46.40506554 -0.28338432 C56.80890218 -0.42480841 64.28552468 0.87564207 72.3449707 7.68139648 C78.96476272 15.62514691 81.86308563 21.71579365 81.7277832 32.20483398 C81.72353836 33.45727402 81.72353836 33.45727402 81.71920776 34.73501587 C81.70807371 37.3839594 81.68298197 40.03255632 81.6574707 42.68139648 C81.64743213 44.48477699 81.63830782 46.28816284 81.63012695 48.09155273 C81.60815661 52.49663281 81.57367392 56.90145602 81.5324707 61.30639648 C82.55171631 61.5648938 82.55171631 61.5648938 83.59155273 61.82861328 C90.06415014 63.52371077 96.22045744 65.58152588 102.4074707 68.11889648 C103.20282227 68.43665039 103.99817383 68.7544043 104.81762695 69.08178711 C111.8316037 71.9197157 118.68175834 75.09752012 125.5324707 78.30639648 C126.20713379 77.60554932 126.88179688 76.90470215 127.5769043 76.18261719 C130.11702763 73.55103526 132.67445128 70.93682296 135.23706055 68.32714844 C136.33745071 67.20182982 137.43328734 66.07203766 138.52416992 64.9375 C147.2279086 55.89470642 155.43497303 48.47151522 168.6574707 47.99389648 C186.0183577 48.28276316 197.37073426 63.87558155 208.72436523 75.14819336 C210.43160286 76.83881157 212.14419646 78.52403802 213.86206055 80.20385742 C216.36349255 82.65036014 218.84792133 85.11305937 221.3293457 87.57983398 C222.09293396 88.32075287 222.85652222 89.06167175 223.64324951 89.82504272 C230.51538241 96.72458203 234.01967072 103.76819667 234.7824707 113.49389648 C233.8110757 128.30767033 224.854171 137.44513816 214.6574707 147.36889648 C213.67239302 148.33888651 212.68801291 149.3095855 211.7043457 150.28100586 C209.32045744 152.62983695 206.92982445 154.97132411 204.5324707 157.30639648 C204.76844971 157.81275635 205.00442871 158.31911621 205.24755859 158.84082031 C209.66121546 168.35793503 213.90865962 177.89453893 217.5324707 187.74389648 C217.82259033 188.52933838 218.11270996 189.31478027 218.41162109 190.12402344 C219.75356336 193.84425542 220.80955612 197.40848497 221.5324707 201.30639648 C222.63123535 201.28544922 223.73 201.26450195 224.86206055 201.24291992 C228.98074045 201.16992821 233.09936447 201.12438409 237.21850586 201.08666992 C238.9933436 201.06668809 240.76811664 201.03949293 242.54272461 201.00463867 C254.02362303 200.78497038 262.89831573 200.96867977 272.7824707 207.43139648 C278.91620882 213.84394088 282.62460517 220.65116836 282.7253418 229.546875 C282.74140472 230.83574112 282.75746765 232.12460724 282.77401733 233.45252991 C282.78550942 234.86344743 282.79611718 236.27437239 282.8059082 237.68530273 C282.81389372 238.75467732 282.81389372 238.75467732 282.82204056 239.84565544 C282.84875892 243.62430622 282.86813192 247.40292422 282.88256836 251.18164062 C282.89586628 254.29424702 282.92364207 257.40619138 282.96459961 260.51855469 C283.01421185 264.28927366 283.03872462 268.05939582 283.04579544 271.83042717 C283.052464 273.25963802 283.06757009 274.68883787 283.09168625 276.11786079 C283.26683282 287.13083316 281.69564246 294.90135504 274.2199707 303.18139648 C267.01825498 309.84848703 259.61780383 311.46667852 250.0480957 311.40405273 C249.23250183 311.40263779 248.41690796 311.40122284 247.57659912 311.39976501 C244.97851859 311.39417952 242.38052507 311.38162969 239.7824707 311.36889648 C238.01814903 311.36387961 236.25382601 311.35931703 234.48950195 311.35522461 C230.17045814 311.34421484 225.85147917 311.32696018 221.5324707 311.30639648 C221.36013916 311.98589355 221.18780762 312.66539062 221.01025391 313.36547852 C219.31515642 319.83807592 217.25734131 325.99438322 214.7199707 332.18139648 C214.24333984 333.37442383 214.24333984 333.37442383 213.75708008 334.59155273 C210.91915149 341.60552948 207.74134706 348.45568412 204.5324707 355.30639648 C205.23331787 355.98105957 205.93416504 356.65572266 206.65625 357.35083008 C209.28783192 359.89095341 211.90204423 362.44837706 214.51171875 365.01098633 C215.63703737 366.11137649 216.76682953 367.20721312 217.90136719 368.2980957 C226.94416076 377.00183438 234.36735197 385.20889881 234.8449707 398.43139648 C234.55610403 415.79228349 218.96328564 427.14466004 207.69067383 438.49829102 C206.00005562 440.20552864 204.31482917 441.91812224 202.63500977 443.63598633 C200.18850705 446.13741833 197.72580782 448.62184711 195.2590332 451.10327148 C194.51811432 451.86685974 193.77719543 452.630448 193.01382446 453.41717529 C186.11428515 460.28930819 179.07067052 463.7935965 169.3449707 464.55639648 C154.53119686 463.58500148 145.39372903 454.62809679 135.4699707 444.43139648 C134.49998067 443.4463188 133.52928169 442.4619387 132.55786133 441.47827148 C130.20903024 439.09438322 127.86754308 436.70375023 125.5324707 434.30639648 C125.02611084 434.54237549 124.51975098 434.77835449 123.99804688 435.02148438 C114.48093215 439.43514124 104.94432826 443.6825854 95.0949707 447.30639648 C94.30952881 447.59651611 93.52408691 447.88663574 92.71484375 448.18554688 C88.99461176 449.52748915 85.43038222 450.5834819 81.5324707 451.30639648 C81.55341797 452.41039795 81.57436523 453.51439941 81.59594727 454.65185547 C81.66884677 458.78355726 81.7144503 462.91520326 81.75219727 467.04736328 C81.77219975 468.82903635 81.79941093 470.61064471 81.83422852 472.39208984 C82.19070265 491.11222438 82.19070265 491.11222438 77.5324707 498.30639648 C76.9755957 499.35827148 76.4187207 500.41014648 75.8449707 501.49389648 C71.60006686 506.65661737 65.84209904 510.16138871 59.5324707 512.30639648 C56.49287415 512.58055115 56.49287415 512.58055115 53.06494141 512.61279297 C51.77622635 512.62878036 50.48751129 512.64476776 49.15974426 512.66123962 C47.75925088 512.66761877 46.3587527 512.67301074 44.95825195 512.67749023 C43.50961723 512.68646748 42.06098341 512.69558951 40.61235046 512.70484924 C37.57699336 512.72131596 34.54174621 512.72903456 31.50634766 512.73193359 C27.64068813 512.73730186 23.77608131 512.77492546 19.91071796 512.82067776 C16.9172959 512.85061547 13.92412164 512.8576608 10.93056297 512.85865974 C9.50695179 512.8628324 8.08333782 512.87514641 6.65987587 512.89617729 C-3.74396078 513.03760138 -11.22058328 511.7371509 -19.2800293 504.93139648 C-25.89982132 496.98764606 -28.79814423 490.89699932 -28.6628418 480.40795898 C-28.6600119 479.57299896 -28.65718201 478.73803894 -28.65426636 477.8777771 C-28.6431323 475.22883357 -28.61804057 472.58023665 -28.5925293 469.93139648 C-28.58249073 468.12801597 -28.57336641 466.32463013 -28.56518555 464.52124023 C-28.5432152 460.11616016 -28.50873251 455.71133695 -28.4675293 451.30639648 C-29.14702637 451.13406494 -29.82652344 450.9617334 -30.52661133 450.78417969 C-36.99920873 449.0890822 -43.15551603 447.03126709 -49.3425293 444.49389648 C-50.53555664 444.01726562 -50.53555664 444.01726562 -51.75268555 443.53100586 C-58.7666623 440.69307727 -65.61681693 437.51527284 -72.4675293 434.30639648 C-73.10142578 434.97171387 -73.73532227 435.63703125 -74.38842773 436.32250977 C-76.79138544 438.82890026 -79.20816063 441.32028411 -81.63500977 443.8034668 C-82.67423013 444.87250743 -83.70796477 445.94691374 -84.7355957 447.02709961 C-93.50642902 456.23433536 -102.44653898 463.52043646 -115.6550293 464.55639648 C-128.61031918 463.70686928 -136.03937331 457.05007646 -144.8815918 448.26342773 C-146.21968399 446.93887825 -146.21968399 446.93887825 -147.58480835 445.58757019 C-149.46515694 443.72169627 -151.34296725 441.85358844 -153.2175293 439.98193359 C-155.60398964 437.60085342 -158.0061835 435.23635539 -160.41266823 432.87553883 C-162.72596577 430.59937658 -165.02128785 428.3052135 -167.3190918 426.01342773 C-168.17644928 425.17560257 -169.03380676 424.3377774 -169.91714478 423.4745636 C-176.76384703 416.57592262 -181.49694924 409.14426231 -181.7175293 399.18139648 C-181.46824683 384.00009395 -171.82530404 375.35656616 -161.5925293 365.30639648 C-160.60768587 364.3316091 -159.62330736 363.35635177 -158.6394043 362.38061523 C-156.2532932 360.01789739 -153.86261994 357.66000541 -151.4675293 355.30639648 C-151.8214978 354.54685669 -151.8214978 354.54685669 -152.18261719 353.77197266 C-156.59627405 344.25485793 -160.84371821 334.71825404 -164.4675293 324.86889648 C-164.75764893 324.08345459 -165.04776855 323.2980127 -165.34667969 322.48876953 C-166.68862196 318.76853755 -167.74461471 315.204308 -168.4675293 311.30639648 C-169.54123779 311.32210693 -170.61494629 311.33781738 -171.72119141 311.35400391 C-175.74113329 311.40869603 -179.76104292 311.44288806 -183.78125 311.47119141 C-185.51437936 311.48618918 -187.24747134 311.50659421 -188.98046875 311.53271484 C-191.48536454 311.56949851 -193.9897545 311.586213 -196.49487305 311.59936523 C-197.63919044 311.62259102 -197.63919044 311.62259102 -198.80662537 311.64628601 C-206.76144406 311.64872154 -213.75636367 309.6819797 -219.7175293 304.24389648 C-220.50643555 303.55166992 -221.2953418 302.85944336 -222.1081543 302.14624023 C-229.32831953 293.45574334 -230.22363422 285.27963239 -230.1315918 274.24389648 C-230.13496935 272.80240471 -230.13982973 271.36091574 -230.14608765 269.91943359 C-230.1534151 266.91370245 -230.14288941 263.90871957 -230.11938477 260.90307617 C-230.0908976 257.076639 -230.10732419 253.25195591 -230.13724709 249.42558289 C-230.15543361 246.45352284 -230.14951081 243.48186935 -230.13660812 240.50979614 C-230.13330528 239.10018702 -230.13724957 237.69053931 -230.14900589 236.28097534 C-230.20698402 227.37887196 -229.3125835 220.86312488 -224.4675293 213.30639648 C-223.6322168 211.94514648 -223.6322168 211.94514648 -222.7800293 210.55639648 C-215.27909952 203.25819454 -207.92962965 201.14401248 -197.7644043 201.20874023 C-196.92661438 201.21015518 -196.08882446 201.21157013 -195.22564697 201.21302795 C-192.55623772 201.21861451 -189.88691309 201.23116454 -187.2175293 201.24389648 C-185.40503051 201.24891322 -183.59253041 201.25347583 -181.7800293 201.25756836 C-177.34249681 201.26857954 -172.90502739 201.28583494 -168.4675293 201.30639648 C-168.20903198 200.28715088 -168.20903198 200.28715088 -167.9453125 199.24731445 C-166.25021501 192.77471705 -164.19239991 186.61840975 -161.6550293 180.43139648 C-161.33727539 179.63604492 -161.01952148 178.84069336 -160.69213867 178.02124023 C-157.85421008 171.00726348 -154.67640566 164.15710885 -151.4675293 157.30639648 C-152.13284668 156.6725 -152.79816406 156.03860352 -153.48364258 155.38549805 C-155.99003308 152.98254035 -158.48141693 150.56576515 -160.96459961 148.13891602 C-162.03364025 147.09969565 -163.10804655 146.06596101 -164.18823242 145.03833008 C-173.39546817 136.26749676 -180.68156927 127.3273868 -181.7175293 114.11889648 C-180.86800209 101.1636066 -174.21120927 93.73455247 -165.42456055 84.89233398 C-164.54152756 84.00027252 -163.65849457 83.10821106 -162.748703 82.18911743 C-160.88282908 80.30876884 -159.01472126 78.43095853 -157.14306641 76.55639648 C-154.76198624 74.16993615 -152.39748821 71.76774228 -150.03667164 69.36125755 C-147.76050939 67.04796001 -145.46634631 64.75263793 -143.17456055 62.45483398 C-142.33673538 61.5974765 -141.49891022 60.74011902 -140.63569641 59.85678101 C-133.73705544 53.01007875 -126.30539513 48.27697654 -116.3425293 48.05639648 C-101.16122676 48.30567896 -92.51769897 57.94862174 -82.4675293 68.18139648 C-81.49274191 69.16623991 -80.51748458 70.15061842 -79.54174805 71.13452148 C-77.1790302 73.52063258 -74.82113823 75.91130584 -72.4675293 78.30639648 C-71.96116943 78.07041748 -71.45480957 77.83443848 -70.93310547 77.59130859 C-61.41599075 73.17765173 -51.87938685 68.93020757 -42.0300293 65.30639648 C-41.2445874 65.01627686 -40.45914551 64.72615723 -39.64990234 64.42724609 C-35.92967036 63.08530382 -32.36544081 62.02931107 -28.4675293 61.30639648 C-28.48847656 60.20239502 -28.50942383 59.09839355 -28.53100586 57.9609375 C-28.60390537 53.82923571 -28.6495089 49.69758971 -28.68725586 45.56542969 C-28.70725835 43.78375662 -28.73446952 42.00214826 -28.76928711 40.22070312 C-29.12576125 21.50056859 -29.12576125 21.50056859 -24.4675293 14.30639648 C-23.9106543 13.25452148 -23.3537793 12.20264648 -22.7800293 11.11889648 C-16.97565329 4.05952026 -9.08748383 0.08547339 0 0 Z " fill="#FDC56B" transform="translate(229.467529296875,-0.306396484375)"/>
<path d="M0 0 C1.26237731 2.52475462 1.09856404 4.31200466 1.0625 7.125 C1.05347656 8.03507812 1.04445313 8.94515625 1.03515625 9.8828125 C1.01775391 10.93082031 1.01775391 10.93082031 1 12 C1.71027344 12.24363281 2.42054688 12.48726562 3.15234375 12.73828125 C7.4060165 14.62296753 10.74839841 17.54276767 14.37890625 20.41796875 C16.79749243 22.23455929 16.79749243 22.23455929 19.12890625 21.7890625 C19.74636719 21.52867187 20.36382812 21.26828125 21 21 C25.40050092 19.94062015 27.24562268 19.60146104 31.3125 21.75 C34 24 34 24 36 27 C35.9765625 29.12109375 35.9765625 29.12109375 35.625 31.4375 C34.74935316 37.45502652 34.98073413 40.63352886 38.5 45.75 C41.16887831 49.5709603 41.16887831 49.5709603 45.13671875 51.609375 C47.09888429 51.50472617 49.05172919 51.25551093 51 51 C57.98533744 53.98907463 60.22274401 61.40810123 63 68 C76.46991762 101.68354076 75.1163313 139.1477077 61.02539062 172.29248047 C45.96844901 205.71979247 18.98660856 230.44293422 -14.875 243.8125 C-16.91149695 244.55598301 -18.95276678 245.28661165 -21 246 C-21.79019531 246.28488281 -22.58039063 246.56976563 -23.39453125 246.86328125 C-53.43341712 256.84212749 -89.30991645 254.14461411 -117.640625 240.19921875 C-118.41921875 239.80347656 -119.1978125 239.40773438 -120 239 C-121.19882813 238.45279297 -121.19882813 238.45279297 -122.421875 237.89453125 C-153.99054636 223.16583585 -176.67524137 194.49993233 -188.93554688 162.56298828 C-200.96161763 128.74150202 -198.02558654 91.33714769 -183 59.0078125 C-168.14426193 28.47598938 -141.1874464 4.17926708 -109.51025391 -7.95361328 C-104.73599568 -9.5903021 -99.9088957 -10.83804033 -95 -12 C-93.85660156 -12.30292969 -92.71320313 -12.60585937 -91.53515625 -12.91796875 C-63.33734728 -20.34211376 -24.21353203 -18.27226645 0 0 Z " fill="#B1B4C0" transform="translate(318,138)"/>
<path d="M0 0 C1.28871506 -0.0159874 2.57743011 -0.03197479 3.90519714 -0.04844666 C5.30569053 -0.0548258 6.7061887 -0.06021777 8.10668945 -0.06469727 C9.55532417 -0.07367451 11.003958 -0.08279654 12.45259094 -0.09205627 C15.48794804 -0.10852299 18.5231952 -0.11624159 21.55859375 -0.11914062 C25.42425327 -0.12450889 29.2888601 -0.16213249 33.15422344 -0.20788479 C36.14764551 -0.2378225 39.14081977 -0.24486783 42.13437843 -0.24586678 C43.55798962 -0.25003944 44.98160359 -0.26235344 46.40506554 -0.28338432 C56.80890218 -0.42480841 64.28552468 0.87564207 72.3449707 7.68139648 C78.96476272 15.62514691 81.86308563 21.71579365 81.7277832 32.20483398 C81.72353836 33.45727402 81.72353836 33.45727402 81.71920776 34.73501587 C81.70807371 37.3839594 81.68298197 40.03255632 81.6574707 42.68139648 C81.64743213 44.48477699 81.63830782 46.28816284 81.63012695 48.09155273 C81.60815661 52.49663281 81.57367392 56.90145602 81.5324707 61.30639648 C82.55171631 61.5648938 82.55171631 61.5648938 83.59155273 61.82861328 C90.06415014 63.52371077 96.22045744 65.58152588 102.4074707 68.11889648 C103.20282227 68.43665039 103.99817383 68.7544043 104.81762695 69.08178711 C111.8316037 71.9197157 118.68175834 75.09752012 125.5324707 78.30639648 C126.20713379 77.60554932 126.88179688 76.90470215 127.5769043 76.18261719 C130.11702763 73.55103526 132.67445128 70.93682296 135.23706055 68.32714844 C136.33745071 67.20182982 137.43328734 66.07203766 138.52416992 64.9375 C147.2279086 55.89470642 155.43497303 48.47151522 168.6574707 47.99389648 C186.0183577 48.28276316 197.37073426 63.87558155 208.72436523 75.14819336 C210.43160286 76.83881157 212.14419646 78.52403802 213.86206055 80.20385742 C216.36349255 82.65036014 218.84792133 85.11305937 221.3293457 87.57983398 C222.09293396 88.32075287 222.85652222 89.06167175 223.64324951 89.82504272 C230.51538241 96.72458203 234.01967072 103.76819667 234.7824707 113.49389648 C233.8110757 128.30767033 224.854171 137.44513816 214.6574707 147.36889648 C213.67239302 148.33888651 212.68801291 149.3095855 211.7043457 150.28100586 C209.32045744 152.62983695 206.92982445 154.97132411 204.5324707 157.30639648 C204.76844971 157.81275635 205.00442871 158.31911621 205.24755859 158.84082031 C209.66121546 168.35793503 213.90865962 177.89453893 217.5324707 187.74389648 C217.82259033 188.52933838 218.11270996 189.31478027 218.41162109 190.12402344 C219.75356336 193.84425542 220.80955612 197.40848497 221.5324707 201.30639648 C222.63123535 201.28544922 223.73 201.26450195 224.86206055 201.24291992 C228.98074045 201.16992821 233.09936447 201.12438409 237.21850586 201.08666992 C238.9933436 201.06668809 240.76811664 201.03949293 242.54272461 201.00463867 C254.02362303 200.78497038 262.89831573 200.96867977 272.7824707 207.43139648 C278.91620882 213.84394088 282.62460517 220.65116836 282.7253418 229.546875 C282.74140472 230.83574112 282.75746765 232.12460724 282.77401733 233.45252991 C282.78550942 234.86344743 282.79611718 236.27437239 282.8059082 237.68530273 C282.81389372 238.75467732 282.81389372 238.75467732 282.82204056 239.84565544 C282.84875892 243.62430622 282.86813192 247.40292422 282.88256836 251.18164062 C282.89586628 254.29424702 282.92364207 257.40619138 282.96459961 260.51855469 C283.01421185 264.28927366 283.03872462 268.05939582 283.04579544 271.83042717 C283.052464 273.25963802 283.06757009 274.68883787 283.09168625 276.11786079 C283.26683282 287.13083316 281.69564246 294.90135504 274.2199707 303.18139648 C267.01825498 309.84848703 259.61780383 311.46667852 250.0480957 311.40405273 C249.23250183 311.40263779 248.41690796 311.40122284 247.57659912 311.39976501 C244.97851859 311.39417952 242.38052507 311.38162969 239.7824707 311.36889648 C238.01814903 311.36387961 236.25382601 311.35931703 234.48950195 311.35522461 C230.17045814 311.34421484 225.85147917 311.32696018 221.5324707 311.30639648 C221.36013916 311.98589355 221.18780762 312.66539062 221.01025391 313.36547852 C219.31515642 319.83807592 217.25734131 325.99438322 214.7199707 332.18139648 C214.24333984 333.37442383 214.24333984 333.37442383 213.75708008 334.59155273 C210.91915149 341.60552948 207.74134706 348.45568412 204.5324707 355.30639648 C205.23331787 355.98105957 205.93416504 356.65572266 206.65625 357.35083008 C209.28783192 359.89095341 211.90204423 362.44837706 214.51171875 365.01098633 C215.63703737 366.11137649 216.76682953 367.20721312 217.90136719 368.2980957 C226.94416076 377.00183438 234.36735197 385.20889881 234.8449707 398.43139648 C234.55610403 415.79228349 218.96328564 427.14466004 207.69067383 438.49829102 C206.00005562 440.20552864 204.31482917 441.91812224 202.63500977 443.63598633 C200.18850705 446.13741833 197.72580782 448.62184711 195.2590332 451.10327148 C194.51811432 451.86685974 193.77719543 452.630448 193.01382446 453.41717529 C186.11428515 460.28930819 179.07067052 463.7935965 169.3449707 464.55639648 C154.53119686 463.58500148 145.39372903 454.62809679 135.4699707 444.43139648 C134.49998067 443.4463188 133.52928169 442.4619387 132.55786133 441.47827148 C130.20903024 439.09438322 127.86754308 436.70375023 125.5324707 434.30639648 C125.02611084 434.54237549 124.51975098 434.77835449 123.99804688 435.02148438 C114.48093215 439.43514124 104.94432826 443.6825854 95.0949707 447.30639648 C94.30952881 447.59651611 93.52408691 447.88663574 92.71484375 448.18554688 C88.99461176 449.52748915 85.43038222 450.5834819 81.5324707 451.30639648 C81.55341797 452.41039795 81.57436523 453.51439941 81.59594727 454.65185547 C81.66884677 458.78355726 81.7144503 462.91520326 81.75219727 467.04736328 C81.77219975 468.82903635 81.79941093 470.61064471 81.83422852 472.39208984 C82.19070265 491.11222438 82.19070265 491.11222438 77.5324707 498.30639648 C76.9755957 499.35827148 76.4187207 500.41014648 75.8449707 501.49389648 C71.60006686 506.65661737 65.84209904 510.16138871 59.5324707 512.30639648 C56.49287415 512.58055115 56.49287415 512.58055115 53.06494141 512.61279297 C51.77622635 512.62878036 50.48751129 512.64476776 49.15974426 512.66123962 C47.75925088 512.66761877 46.3587527 512.67301074 44.95825195 512.67749023 C43.50961723 512.68646748 42.06098341 512.69558951 40.61235046 512.70484924 C37.57699336 512.72131596 34.54174621 512.72903456 31.50634766 512.73193359 C27.64068813 512.73730186 23.77608131 512.77492546 19.91071796 512.82067776 C16.9172959 512.85061547 13.92412164 512.8576608 10.93056297 512.85865974 C9.50695179 512.8628324 8.08333782 512.87514641 6.65987587 512.89617729 C-3.74396078 513.03760138 -11.22058328 511.7371509 -19.2800293 504.93139648 C-25.89982132 496.98764606 -28.79814423 490.89699932 -28.6628418 480.40795898 C-28.6600119 479.57299896 -28.65718201 478.73803894 -28.65426636 477.8777771 C-28.6431323 475.22883357 -28.61804057 472.58023665 -28.5925293 469.93139648 C-28.58249073 468.12801597 -28.57336641 466.32463013 -28.56518555 464.52124023 C-28.5432152 460.11616016 -28.50873251 455.71133695 -28.4675293 451.30639648 C-29.14702637 451.13406494 -29.82652344 450.9617334 -30.52661133 450.78417969 C-36.99920873 449.0890822 -43.15551603 447.03126709 -49.3425293 444.49389648 C-50.53555664 444.01726562 -50.53555664 444.01726562 -51.75268555 443.53100586 C-58.7666623 440.69307727 -65.61681693 437.51527284 -72.4675293 434.30639648 C-73.10142578 434.97171387 -73.73532227 435.63703125 -74.38842773 436.32250977 C-76.79138544 438.82890026 -79.20816063 441.32028411 -81.63500977 443.8034668 C-82.67423013 444.87250743 -83.70796477 445.94691374 -84.7355957 447.02709961 C-93.50642902 456.23433536 -102.44653898 463.52043646 -115.6550293 464.55639648 C-128.61031918 463.70686928 -136.03937331 457.05007646 -144.8815918 448.26342773 C-146.21968399 446.93887825 -146.21968399 446.93887825 -147.58480835 445.58757019 C-149.46515694 443.72169627 -151.34296725 441.85358844 -153.2175293 439.98193359 C-155.60398964 437.60085342 -158.0061835 435.23635539 -160.41266823 432.87553883 C-162.72596577 430.59937658 -165.02128785 428.3052135 -167.3190918 426.01342773 C-168.17644928 425.17560257 -169.03380676 424.3377774 -169.91714478 423.4745636 C-176.76384703 416.57592262 -181.49694924 409.14426231 -181.7175293 399.18139648 C-181.46824683 384.00009395 -171.82530404 375.35656616 -161.5925293 365.30639648 C-160.60768587 364.3316091 -159.62330736 363.35635177 -158.6394043 362.38061523 C-156.2532932 360.01789739 -153.86261994 357.66000541 -151.4675293 355.30639648 C-151.8214978 354.54685669 -151.8214978 354.54685669 -152.18261719 353.77197266 C-156.59627405 344.25485793 -160.84371821 334.71825404 -164.4675293 324.86889648 C-164.75764893 324.08345459 -165.04776855 323.2980127 -165.34667969 322.48876953 C-166.68862196 318.76853755 -167.74461471 315.204308 -168.4675293 311.30639648 C-169.54123779 311.32210693 -170.61494629 311.33781738 -171.72119141 311.35400391 C-175.74113329 311.40869603 -179.76104292 311.44288806 -183.78125 311.47119141 C-185.51437936 311.48618918 -187.24747134 311.50659421 -188.98046875 311.53271484 C-191.48536454 311.56949851 -193.9897545 311.586213 -196.49487305 311.59936523 C-197.63919044 311.62259102 -197.63919044 311.62259102 -198.80662537 311.64628601 C-206.76144406 311.64872154 -213.75636367 309.6819797 -219.7175293 304.24389648 C-220.50643555 303.55166992 -221.2953418 302.85944336 -222.1081543 302.14624023 C-229.32831953 293.45574334 -230.22363422 285.27963239 -230.1315918 274.24389648 C-230.13496935 272.80240471 -230.13982973 271.36091574 -230.14608765 269.91943359 C-230.1534151 266.91370245 -230.14288941 263.90871957 -230.11938477 260.90307617 C-230.0908976 257.076639 -230.10732419 253.25195591 -230.13724709 249.42558289 C-230.15543361 246.45352284 -230.14951081 243.48186935 -230.13660812 240.50979614 C-230.13330528 239.10018702 -230.13724957 237.69053931 -230.14900589 236.28097534 C-230.20698402 227.37887196 -229.3125835 220.86312488 -224.4675293 213.30639648 C-223.6322168 211.94514648 -223.6322168 211.94514648 -222.7800293 210.55639648 C-215.27909952 203.25819454 -207.92962965 201.14401248 -197.7644043 201.20874023 C-196.92661438 201.21015518 -196.08882446 201.21157013 -195.22564697 201.21302795 C-192.55623772 201.21861451 -189.88691309 201.23116454 -187.2175293 201.24389648 C-185.40503051 201.24891322 -183.59253041 201.25347583 -181.7800293 201.25756836 C-177.34249681 201.26857954 -172.90502739 201.28583494 -168.4675293 201.30639648 C-168.20903198 200.28715088 -168.20903198 200.28715088 -167.9453125 199.24731445 C-166.25021501 192.77471705 -164.19239991 186.61840975 -161.6550293 180.43139648 C-161.33727539 179.63604492 -161.01952148 178.84069336 -160.69213867 178.02124023 C-157.85421008 171.00726348 -154.67640566 164.15710885 -151.4675293 157.30639648 C-152.13284668 156.6725 -152.79816406 156.03860352 -153.48364258 155.38549805 C-155.99003308 152.98254035 -158.48141693 150.56576515 -160.96459961 148.13891602 C-162.03364025 147.09969565 -163.10804655 146.06596101 -164.18823242 145.03833008 C-173.39546817 136.26749676 -180.68156927 127.3273868 -181.7175293 114.11889648 C-180.86800209 101.1636066 -174.21120927 93.73455247 -165.42456055 84.89233398 C-164.54152756 84.00027252 -163.65849457 83.10821106 -162.748703 82.18911743 C-160.88282908 80.30876884 -159.01472126 78.43095853 -157.14306641 76.55639648 C-154.76198624 74.16993615 -152.39748821 71.76774228 -150.03667164 69.36125755 C-147.76050939 67.04796001 -145.46634631 64.75263793 -143.17456055 62.45483398 C-142.33673538 61.5974765 -141.49891022 60.74011902 -140.63569641 59.85678101 C-133.73705544 53.01007875 -126.30539513 48.27697654 -116.3425293 48.05639648 C-101.16122676 48.30567896 -92.51769897 57.94862174 -82.4675293 68.18139648 C-81.49274191 69.16623991 -80.51748458 70.15061842 -79.54174805 71.13452148 C-77.1790302 73.52063258 -74.82113823 75.91130584 -72.4675293 78.30639648 C-71.96116943 78.07041748 -71.45480957 77.83443848 -70.93310547 77.59130859 C-61.41599075 73.17765173 -51.87938685 68.93020757 -42.0300293 65.30639648 C-41.2445874 65.01627686 -40.45914551 64.72615723 -39.64990234 64.42724609 C-35.92967036 63.08530382 -32.36544081 62.02931107 -28.4675293 61.30639648 C-28.48847656 60.20239502 -28.50942383 59.09839355 -28.53100586 57.9609375 C-28.60390537 53.82923571 -28.6495089 49.69758971 -28.68725586 45.56542969 C-28.70725835 43.78375662 -28.73446952 42.00214826 -28.76928711 40.22070312 C-29.12576125 21.50056859 -29.12576125 21.50056859 -24.4675293 14.30639648 C-23.9106543 13.25452148 -23.3537793 12.20264648 -22.7800293 11.11889648 C-16.97565329 4.05952026 -9.08748383 0.08547339 0 0 Z M-7.4675293 25.30639648 C-8.64341096 27.65815982 -8.59198376 29.05591619 -8.59350586 31.67675781 C-8.599216 33.03375542 -8.599216 33.03375542 -8.6050415 34.41816711 C-8.60658234 35.88844612 -8.60658234 35.88844612 -8.6081543 37.38842773 C-8.62648218 39.45549605 -8.64605247 41.52255365 -8.66674805 43.58959961 C-8.69572726 46.85516397 -8.71752947 50.12004085 -8.71801758 53.38574219 C-8.72135088 56.53309428 -8.75589601 59.6788522 -8.7956543 62.82592773 C-8.78858459 63.80004105 -8.78151489 64.77415436 -8.77423096 65.77778625 C-8.8570367 70.38897408 -8.9423702 72.60757102 -11.77905273 76.38232422 C-15.16007748 78.80203508 -18.47858635 79.67705462 -22.4675293 80.55639648 C-37.44317824 84.3068736 -51.58253302 90.75538925 -64.87597656 98.56323242 C-69.20215444 101.01153676 -72.39569535 102.29039974 -77.4675293 101.30639648 C-80.50770575 99.35049606 -82.93185785 96.86818083 -85.4675293 94.30639648 C-86.82418701 92.96907471 -86.82418701 92.96907471 -88.20825195 91.60473633 C-91.2551266 88.59035017 -94.26940532 85.54442773 -97.2800293 82.49389648 C-99.32529745 80.42197989 -101.37390886 78.35345205 -103.42456055 76.28686523 C-104.32150635 75.37831787 -105.21845215 74.46977051 -106.14257812 73.53369141 C-109.20986723 70.5952394 -110.90555013 69.39212212 -115.1550293 68.74389648 C-118.87859293 68.83894697 -120.54003065 69.86245842 -123.25292969 72.36572266 C-123.94742218 73.00271088 -124.64191467 73.6396991 -125.35745239 74.29598999 C-128.68354984 77.46497776 -131.97010463 80.66614362 -135.21362305 83.91967773 C-136.25849632 84.96311592 -136.25849632 84.96311592 -137.32447815 86.02763367 C-138.78020929 87.48268994 -140.2347011 88.93898711 -141.68798828 90.39648438 C-143.92000197 92.63390544 -146.15737064 94.86587326 -148.39526367 97.09741211 C-149.81420464 98.51701303 -151.23283584 99.93692366 -152.65112305 101.35717773 C-153.65567787 102.35869621 -153.65567787 102.35869621 -154.68052673 103.38044739 C-155.29529373 103.99836655 -155.91006073 104.61628571 -156.54345703 105.25292969 C-157.08558334 105.79585159 -157.62770966 106.3387735 -158.18626404 106.89814758 C-160.17337671 109.08219903 -160.4925174 110.46257213 -160.9675293 113.43139648 C-159.76761496 122.73073257 -148.70042877 130.16288696 -142.2175293 136.55639648 C-140.25104117 138.49615565 -138.28799939 140.43931186 -136.3269043 142.38452148 C-135.46548828 143.23433594 -134.60407227 144.08415039 -133.71655273 144.9597168 C-128.6220634 150.27541713 -128.6220634 150.27541713 -127.93237305 154.87670898 C-128.16621618 160.66265632 -131.23616235 165.25814092 -134.0300293 170.18139648 C-141.3316975 183.61081058 -146.99719323 197.0640798 -150.69580078 211.9152832 C-151.80890766 216.11401404 -152.72976432 218.08825556 -156.4675293 220.30639648 C-158.6545105 220.67147827 -158.6545105 220.67147827 -161.04907227 220.65942383 C-161.95035858 220.66307953 -162.8516449 220.66673523 -163.78024292 220.67050171 C-164.7469693 220.66120636 -165.71369568 220.65191101 -166.7097168 220.64233398 C-168.76570954 220.65484669 -170.82169914 220.66788382 -172.87768555 220.68139648 C-176.11233622 220.6853262 -179.34667762 220.68137772 -182.58129883 220.66674805 C-185.70790583 220.65816763 -188.83322323 220.67987829 -191.9597168 220.70483398 C-193.40373367 220.68481827 -193.40373367 220.68481827 -194.87692261 220.66439819 C-199.36290028 220.71362792 -202.49062426 220.83210685 -206.06176758 223.71899414 C-209.34538373 227.25053098 -209.59513234 228.80077566 -209.62866211 233.50292969 C-209.63826965 234.58778152 -209.6478772 235.67263336 -209.65777588 236.7903595 C-209.66202576 237.96740952 -209.66627563 239.14445953 -209.6706543 240.35717773 C-209.67635437 241.56327194 -209.68205444 242.76936615 -209.68792725 244.01200867 C-209.69738776 246.56838094 -209.70391538 249.12476546 -209.70776367 251.68115234 C-209.71746323 255.59225776 -209.7484752 259.50283651 -209.7800293 263.41381836 C-209.78655974 265.89493502 -209.79181005 268.37605545 -209.7956543 270.85717773 C-209.8080011 272.02815506 -209.8203479 273.19913239 -209.83306885 274.40559387 C-209.83006775 275.49990219 -209.82706665 276.59421051 -209.82397461 277.72167969 C-209.82762024 278.68161331 -209.83126587 279.64154694 -209.83502197 280.63056946 C-209.26938774 284.74912601 -207.56297108 287.27421163 -204.56736755 290.09683228 C-202.11881964 291.50726278 -200.68036753 291.67351709 -197.87011719 291.65942383 C-196.96560318 291.66307953 -196.06108917 291.66673523 -195.12916565 291.67050171 C-194.15930222 291.66120636 -193.18943878 291.65191101 -192.19018555 291.64233398 C-190.12963551 291.65484479 -188.06908862 291.66788183 -186.00854492 291.68139648 C-182.76502415 291.68532951 -179.52181181 291.68135947 -176.27832031 291.66674805 C-173.14430694 291.65818062 -170.01158525 291.67985441 -166.87768555 291.70483398 C-165.90984634 291.69149017 -164.94200714 291.67814636 -163.94483948 291.66439819 C-159.36686081 291.71463337 -157.16741308 291.7845989 -153.40966797 294.58618164 C-151.69357556 296.98978964 -150.68284056 298.60579208 -149.9831543 301.43139648 C-149.77513184 302.2098291 -149.56710938 302.98826172 -149.3527832 303.7902832 C-149.14314941 304.62060059 -148.93351562 305.45091797 -148.7175293 306.30639648 C-144.50535645 321.50782242 -138.51306294 335.95566346 -129.90112305 349.20092773 C-128.1236788 353.05124975 -127.38622126 356.20036162 -128.4675293 360.30639648 C-130.37649311 363.39748351 -132.87504926 365.77998092 -135.4675293 368.30639648 C-136.80485107 369.66112061 -136.80485107 369.66112061 -138.16918945 371.04321289 C-141.18248208 374.09253436 -144.22880929 377.10759277 -147.2800293 380.11889648 C-149.35194589 382.16416463 -151.42047373 384.21277604 -153.48706055 386.26342773 C-154.39560791 387.16037354 -155.30415527 388.05731934 -156.24023438 388.98144531 C-159.17868638 392.04873441 -160.38180366 393.74441732 -161.0300293 397.99389648 C-160.93497882 401.71746012 -159.91146736 403.37889783 -157.40820312 406.09179688 C-156.7712149 406.78628937 -156.13422668 407.48078186 -155.47793579 408.19631958 C-152.30894802 411.52241703 -149.10778216 414.80897182 -145.85424805 418.05249023 C-144.81080986 419.09736351 -144.81080986 419.09736351 -143.74629211 420.16334534 C-142.29123584 421.61907647 -140.83493867 423.07356829 -139.37744141 424.52685547 C-137.14002035 426.75886916 -134.90805252 428.99623783 -132.67651367 431.23413086 C-131.25691275 432.65307183 -129.83700212 434.07170303 -128.41674805 435.48999023 C-127.74906906 436.15969345 -127.08139008 436.82939667 -126.39347839 437.51939392 C-125.77555923 438.13416092 -125.15764008 438.74892792 -124.52099609 439.38232422 C-123.70661324 440.19551369 -123.70661324 440.19551369 -122.8757782 441.02513123 C-120.69172676 443.0122439 -119.31135365 443.33138459 -116.3425293 443.80639648 C-107.04319321 442.60648215 -99.61103882 431.53929595 -93.2175293 425.05639648 C-91.27777013 423.08990835 -89.33461392 421.12686658 -87.3894043 419.16577148 C-86.53958984 418.30435547 -85.68977539 417.44293945 -84.81420898 416.55541992 C-79.49850865 411.46093059 -79.49850865 411.46093059 -74.8972168 410.77124023 C-69.11126946 411.00508337 -64.51578486 414.07502953 -59.5925293 416.86889648 C-46.1631152 424.17056468 -32.70984598 429.83606042 -17.85864258 433.53466797 C-13.65855111 434.64813556 -11.69156717 435.57239612 -9.4675293 439.30639648 C-9.08898926 441.46214294 -9.08898926 441.46214294 -9.08276367 443.81201172 C-9.07265259 444.69650497 -9.0625415 445.58099823 -9.05212402 446.49229431 C-9.05514526 447.44028397 -9.0581665 448.38827362 -9.0612793 449.36499023 C-9.05044312 450.3462941 -9.03960693 451.32759796 -9.02844238 452.33863831 C-8.99417484 455.47379151 -8.97858692 458.60858059 -8.9675293 461.74389648 C-8.95296005 465.86794468 -8.91927268 469.99118009 -8.8737793 474.11499023 C-8.87680054 475.06095566 -8.87982178 476.00692108 -8.88293457 476.98155212 C-8.82713189 481.88043265 -8.75564119 485.39687613 -5.4675293 489.30639648 C-2.31325226 492.16658163 -0.27014348 492.68399678 3.95605469 492.69458008 C5.04075546 492.70403656 6.12545624 492.71349304 7.24302673 492.72323608 C8.40975418 492.71716339 9.57648163 492.7110907 10.77856445 492.70483398 C11.98182877 492.70770416 13.18509308 492.71057434 14.42481995 492.71353149 C16.96925324 492.71557282 19.5137022 492.71003823 22.05810547 492.69750977 C25.95161089 492.68147211 29.84407595 492.69735002 33.73754883 492.71655273 C36.20955633 492.71457004 38.68156318 492.71072583 41.15356445 492.70483398 C42.90061928 492.71394302 42.90061928 492.71394302 44.68296814 492.72323608 C45.77082108 492.7137796 46.85867401 492.70432312 47.97949219 492.69458008 C48.9333934 492.6921933 49.88729462 492.68980652 50.87010193 492.68734741 C54.96912119 492.10083017 57.62740129 490.34343977 60.32397461 487.25366211 C62.11166521 482.89386394 61.91441618 478.816741 61.8684082 474.15014648 C61.88091685 472.13842448 61.8939538 470.12670571 61.9074707 468.11499023 C61.91140547 464.95488117 61.90741847 461.79508887 61.89282227 458.63500977 C61.88425529 455.57707522 61.90592398 452.52046447 61.9309082 449.46264648 C61.91756439 448.51981812 61.90422058 447.57698975 61.89047241 446.60559082 C61.94171979 442.05498915 62.02773054 439.9711101 64.85107422 436.25292969 C68.10235498 433.89269464 71.25200211 432.91613732 75.0949707 431.99389648 C100.62045121 425.15361133 100.62045121 425.15361133 122.5324707 411.30639648 C128.65946365 410.78715979 131.62465622 411.51146757 136.5324707 415.30639648 C138.77798964 417.38412391 140.86723394 419.59374008 142.9621582 421.82202148 C144.18130502 423.08591616 145.40138562 424.34891067 146.62231445 425.61108398 C148.52321188 427.58628519 150.41716143 429.56669617 152.2956543 431.56323242 C154.12458672 433.50131927 155.97810921 435.41286377 157.8371582 437.32202148 C158.38951141 437.92193909 158.94186462 438.52185669 159.51095581 439.13995361 C162.27638107 441.94149152 164.45011756 443.72167939 168.45092773 444.11791992 C173.83223302 443.67880347 176.93484499 439.99438555 180.5324707 436.30639648 C181.48245438 435.38858902 181.48245438 435.38858902 182.45162964 434.45223999 C184.41623848 432.55384088 186.34977328 430.62786234 188.27856445 428.69311523 C188.97514664 427.99748978 189.67172882 427.30186432 190.38941956 426.5851593 C191.84515069 425.13010303 193.2996425 423.67380586 194.75292969 422.21630859 C196.98494338 419.97888753 199.22231205 417.74691971 201.46020508 415.51538086 C202.87914605 414.09577994 204.29777724 412.67586931 205.71606445 411.25561523 C206.72061928 410.25409676 206.72061928 410.25409676 207.74546814 409.23234558 C208.36023514 408.61442642 208.97500214 407.99650726 209.60839844 407.35986328 C210.15052475 406.81694138 210.69265106 406.27401947 211.25120544 405.71464539 C213.70641922 403.01610028 214.18028199 400.24318611 214.12280273 396.62280273 C213.33516549 393.53218977 211.88978224 392.06540358 209.7121582 389.74389648 C208.89537598 388.87055664 208.07859375 387.9972168 207.23706055 387.09741211 C202.56150301 382.27244607 197.81613681 377.52362278 193.0324707 372.80639648 C191.06083427 370.86136954 189.09257715 368.91300937 187.1262207 366.96264648 C186.26706055 366.11508789 185.40790039 365.2675293 184.52270508 364.39428711 C181.4639692 361.18546605 181.18738723 358.90043382 181.2512207 354.46899414 C181.72374463 350.83564607 183.600781 348.01690097 185.5324707 344.99389648 C193.52096361 331.605979 198.85125232 317.40077471 203.09936523 302.42700195 C203.36088379 301.54157715 203.62240234 300.65615234 203.8918457 299.74389648 C204.11324219 298.95885742 204.33463867 298.17381836 204.56274414 297.36499023 C205.79664303 294.74559562 207.09082068 293.84000913 209.5324707 292.30639648 C211.68148804 291.93458557 211.68148804 291.93458557 214.0222168 291.9375 C215.34411514 291.92717491 215.34411514 291.92717491 216.69271851 291.91664124 C217.63757111 291.92279953 218.58242371 291.92895782 219.5559082 291.93530273 C221.56632656 291.9179193 223.57674319 291.90033493 225.5871582 291.88256836 C228.74930018 291.87249941 231.91132899 291.86889857 235.07348633 291.87060547 C238.1304685 291.86702977 241.18658108 291.83966422 244.2434082 291.81030273 C245.65461441 291.82257652 245.65461441 291.82257652 247.09432983 291.83509827 C252.70945258 291.77160934 256.16892124 291.20680706 260.5324707 287.30639648 C262.53392068 284.13381586 262.79723305 281.61643497 262.83886719 277.89868164 C262.85485458 276.81720856 262.87084198 275.73573547 262.88731384 274.62149048 C262.89267654 273.45790009 262.89803925 272.29430969 262.90356445 271.09545898 C262.91259293 269.89456635 262.9216214 268.69367371 262.93092346 267.45639038 C262.94543015 264.91618342 262.95431373 262.37593906 262.95800781 259.83569336 C262.96990484 255.95289062 263.01909125 252.07167638 263.06958008 248.18920898 C263.07904419 245.72046674 263.08627928 243.25171473 263.09106445 240.78295898 C263.12036293 239.04364609 263.12036293 239.04364609 263.1502533 237.26919556 C263.20339124 230.46675785 263.20339124 230.46675785 260.18505859 224.58911133 C256.78997621 221.66743435 254.46772663 221.18299769 250.14038086 221.18041992 C249.25581207 221.17661316 248.37124329 221.1728064 247.45986938 221.16888428 C246.50671844 221.16785706 245.5535675 221.16682983 244.5715332 221.16577148 C242.55329272 221.14744659 240.53506323 221.12787658 238.5168457 221.10717773 C235.33469052 221.07818651 232.15324321 221.05639584 228.97094727 221.0559082 C225.89967017 221.05257503 222.83002678 221.01803663 219.7590332 220.97827148 C218.80993073 220.98534119 217.86082825 220.99241089 216.88296509 220.99969482 C212.329672 220.91579494 210.19660672 220.80807511 206.47241211 217.99487305 C204.03442448 214.61617687 203.16336842 211.30239719 202.2824707 207.30639648 C198.54101261 192.36676049 192.14020198 178.20866596 184.27563477 164.98583984 C182.18130272 161.30388411 180.58711786 157.79687221 180.84130859 153.43652344 C182.46981104 148.41756058 186.85459641 144.90523337 190.5324707 141.30639648 C191.45286133 140.3744043 192.37325195 139.44241211 193.3215332 138.48217773 C196.20205864 135.5666442 199.11422661 132.68410941 202.0324707 129.80639648 C204.00410714 127.86136954 205.97236426 125.91300937 207.9387207 123.96264648 C208.79788086 123.11508789 209.65704102 122.2675293 210.54223633 121.39428711 C213.01217519 118.80315399 213.46274688 117.74217037 214.0324707 114.18139648 C213.50361944 110.08279923 213.12134378 109.43379966 210.47705078 106.54833984 C209.8394986 105.8498996 209.20194641 105.15145935 208.54507446 104.43185425 C205.38322726 101.09271079 202.17588234 97.8069702 198.91918945 94.56030273 C198.223564 93.86372055 197.52793854 93.16713837 196.81123352 92.44944763 C195.35617725 90.99371649 193.89988008 89.53922468 192.44238281 88.0859375 C190.20496175 85.85392381 187.97299393 83.61655514 185.74145508 81.37866211 C184.32185416 79.95972114 182.90194353 78.54108994 181.48168945 77.12280273 C180.81401047 76.45309952 180.14633148 75.7833963 179.4584198 75.09339905 C178.53154106 74.17124855 178.53154106 74.17124855 177.5859375 73.23046875 C176.77155464 72.41727928 176.77155464 72.41727928 175.9407196 71.58766174 C173.24217449 69.13244797 170.46926033 68.6585852 166.84887695 68.71606445 C163.75826399 69.50370169 162.2914778 70.94908495 159.9699707 73.12670898 C159.09663086 73.94349121 158.22329102 74.76027344 157.32348633 75.60180664 C152.49852029 80.27736418 147.749697 85.02273038 143.0324707 89.80639648 C141.08744376 91.77803292 139.13908359 93.74629004 137.1887207 95.71264648 C136.34116211 96.57180664 135.49360352 97.4309668 134.62036133 98.31616211 C131.38292601 101.40217389 129.10246877 101.62073516 124.63696289 101.55639648 C121.276834 101.157235 118.97749937 99.61678526 116.1574707 97.80639648 C101.15702595 88.62215608 84.53193225 82.38109363 67.4855957 78.17749023 C64.89922195 77.02396754 64.03004441 75.69386359 62.5324707 73.30639648 C62.16738892 71.11941528 62.16738892 71.11941528 62.17944336 68.72485352 C62.17578766 67.8235672 62.17213196 66.92228088 62.16836548 65.99368286 C62.17766083 65.02695648 62.18695618 64.0602301 62.1965332 63.06420898 C62.1840205 61.00821625 62.17098336 58.95222664 62.1574707 56.89624023 C62.15354098 53.66158956 62.15748947 50.42724816 62.17211914 47.19262695 C62.18069955 44.06601995 62.1589889 40.94070256 62.1340332 37.81420898 C62.14737701 36.85153107 62.16072083 35.88885315 62.17446899 34.89700317 C62.12568005 30.45119063 62.00667989 27.27923696 59.18237305 23.7121582 C55.5378024 20.40336889 52.98445743 20.17761984 48.23828125 20.11352539 C47.15673264 20.09746246 46.07518402 20.08139954 44.96086121 20.06484985 C40.01964987 20.02035688 35.07857181 19.9793442 30.13720703 19.95629883 C27.53099646 19.93973083 24.92483148 19.91243018 22.31884766 19.87426758 C18.56038855 19.81951771 14.80299356 19.79762727 11.04418945 19.78295898 C9.88151047 19.76028961 8.71883148 19.73762024 7.5209198 19.71426392 C0.72686186 19.73201206 -2.88936048 20.10235018 -7.4675293 25.30639648 Z " fill="#010000" transform="translate(229.467529296875,-0.306396484375)"/>
<path d="M0 0 C15.2916793 12.54079519 25.96788047 27.85638967 28.5 47.8125 C29.97865401 66.64845631 26.18325379 84.36260227 14.3671875 99.5546875 C12.16500059 102.07914567 9.88051261 104.45631972 7.5 106.8125 C6.83613281 107.50988281 6.17226563 108.20726562 5.48828125 108.92578125 C-3.52157229 117.76401853 -16.19681591 123.41911531 -28.5 125.8125 C-29.88445312 126.08513672 -29.88445312 126.08513672 -31.296875 126.36328125 C-41.40102154 127.78032619 -51.19235171 127.27974535 -60.98828125 124.5 C-65.15737598 123.3588481 -68.59999256 122.73107284 -72.4765625 124.9375 C-74.20808279 126.15163375 -75.86176404 127.47516452 -77.5 128.8125 C-79.31883578 127.71880138 -81.12990978 126.61218608 -82.9375 125.5 C-83.94683594 124.88511719 -84.95617187 124.27023437 -85.99609375 123.63671875 C-88.5 121.8125 -88.5 121.8125 -89.5 118.8125 C-89.314375 117.53375 -89.12875 116.255 -88.9375 114.9375 C-88.42737442 111.34012092 -88.55922253 109.01478282 -90.5 105.8125 C-93.31227622 104.87507459 -95.08746844 104.67779156 -98 104.6875 C-98.7734375 104.68492187 -99.546875 104.68234375 -100.34375 104.6796875 C-102.68447017 104.73104187 -102.68447017 104.73104187 -105.5 105.8125 C-106.89533117 103.74046315 -108.26549477 101.65784304 -109.625 99.5625 C-110.02332031 98.97597656 -110.42164063 98.38945312 -110.83203125 97.78515625 C-111.9453125 96.046875 -111.9453125 96.046875 -113.5 92.8125 C-112.74608958 90.16035084 -111.70251887 89.03838643 -109.875 87 C-107.82559674 83.73958573 -108.13528318 81.64202656 -108.5 77.8125 C-108.98168266 76.18197652 -109.48378786 74.55742285 -110 72.9375 C-114.36456291 57.76544799 -111.69648458 38.69617949 -104.5 24.8125 C-94.677143 7.42628094 -79.88859554 -5.61437874 -60.5 -11.1875 C-59.39205078 -11.52394531 -59.39205078 -11.52394531 -58.26171875 -11.8671875 C-38.38291237 -16.87980534 -16.36419198 -12.1310937 0 0 Z " fill="#FEFEFE" transform="translate(297.5,199.1875)"/>
<path d="M0 0 C1.60949419 3.21898839 1.45470546 6.50946689 1 10 C-0.4375 12.9375 -0.4375 12.9375 -3 15 C-9.80599488 16.92509663 -15.04591631 15.40390207 -21.375 12.75 C-23.04432324 12.09316923 -24.71489333 11.43949814 -26.38671875 10.7890625 C-27.18126465 10.47614258 -27.97581055 10.16322266 -28.79443359 9.84082031 C-53.98039897 0.23926344 -83.67656804 3.67711977 -108.01708984 14.14428711 C-135.60131703 26.70454806 -156.16675075 48.15207425 -167.65234375 76.2421875 C-175.51967729 98.17950595 -178.57356551 122.28493912 -172 145 C-171.77425293 145.79325684 -171.54850586 146.58651367 -171.31591797 147.40380859 C-166.23521174 164.89965126 -159.09385559 179.28746393 -147 193 C-146.50113281 193.63035156 -146.00226563 194.26070312 -145.48828125 194.91015625 C-130.9317314 213.22054417 -107.30991438 224.02389859 -85 229 C-84.26064209 229.17732666 -83.52128418 229.35465332 -82.75952148 229.53735352 C-67.47585967 232.96919004 -50.02280098 232.34748411 -35 228 C-34.20674316 227.77425293 -33.41348633 227.54850586 -32.59619141 227.31591797 C-15.10807654 222.23745585 -0.69878794 215.09909395 13 203 C13.680625 202.46246094 14.36125 201.92492187 15.0625 201.37109375 C34.58927123 185.66306609 47.44761814 158.45177362 50.5625 133.9296875 C52.93318634 110.4074267 50.204378 87.95287878 39.34375 66.76953125 C37.62251184 63.22197934 37.5036788 60.89966656 38 57 C39.79562405 54.24670979 41.05254922 52.47372539 44 51 C49.08044964 50.61656984 51.92080539 50.92619558 56 54 C72.38699308 79.1359809 76.06795837 115.5843195 70.1015625 144.50390625 C61.7313154 180.42554987 40.89244885 211.61820265 9.88134766 231.83886719 C0.22341949 237.79956098 -10.3067507 242.27378095 -21 246 C-21.79019531 246.28488281 -22.58039063 246.56976563 -23.39453125 246.86328125 C-53.43341712 256.84212749 -89.30991645 254.14461411 -117.640625 240.19921875 C-118.41921875 239.80347656 -119.1978125 239.40773438 -120 239 C-121.19882813 238.45279297 -121.19882813 238.45279297 -122.421875 237.89453125 C-153.99054636 223.16583585 -176.67524137 194.49993233 -188.93554688 162.56298828 C-200.96161763 128.74150202 -198.02558654 91.33714769 -183 59.0078125 C-168.14426193 28.47598938 -141.1874464 4.17926708 -109.51025391 -7.95361328 C-104.73599568 -9.5903021 -99.9088957 -10.83804033 -95 -12 C-93.85660156 -12.30292969 -92.71320313 -12.60585937 -91.53515625 -12.91796875 C-63.33734728 -20.34211376 -24.21353203 -18.27226645 0 0 Z " fill="#030201" transform="translate(318,138)"/>
<path d="M0 0 C20.58309181 15.30802808 33.4509899 36.2816161 37.625 61.5625 C40.34755489 85.60971817 33.87151388 108.8826435 19.453125 128.26953125 C5.29419984 146.02869593 -15.14945846 159.61599554 -37.9765625 163.24609375 C-53.59339896 164.70007508 -71.64926038 165.17472878 -85.375 156.5625 C-88.04902716 152.55145926 -88.30755974 149.27481513 -87.375 144.5625 C-84.4992327 141.12560737 -82.68547653 139.77217624 -78.25 139.0625 C-74.96602539 139.48623866 -72.16645593 140.16274203 -69 141.0625 C-51.14988762 145.7481545 -32.59048609 141.59358035 -16.5703125 133.0703125 C1.38209111 122.441269 11.10723533 105.99643802 16.234375 86.2109375 C18.94258545 67.84927065 15.3774226 49.60697599 5 34.140625 C-7.03047209 17.98860229 -22.51278149 8.29575669 -42.375 4.5625 C-60.94706329 2.6600985 -78.94481899 6.61493415 -94.0625 17.875 C-95.51892779 19.08167934 -96.95640755 20.31155939 -98.375 21.5625 C-99.12523437 22.21863281 -99.87546875 22.87476563 -100.6484375 23.55078125 C-114.07402742 36.08285922 -120.77440356 52.57432585 -121.59765625 70.71484375 C-121.81143035 78.32927365 -121.36690423 84.9464005 -119.0625 92.26953125 C-118.07297734 95.56981421 -117.84072121 98.1564727 -118.375 101.5625 C-120.18825492 104.5241497 -122.21779694 106.98389847 -125.375 108.5625 C-129.1725514 109.08034792 -131.07778688 108.71705082 -134.5 106.9375 C-140.6460931 101.33987715 -142.01998204 89.26810167 -142.51538086 81.30639648 C-143.45329563 56.92762916 -138.18186495 35.68127951 -122.375 16.5625 C-121.68792969 15.71300781 -121.00085938 14.86351562 -120.29296875 13.98828125 C-89.69018895 -22.01823264 -38.07003557 -25.47854865 0 0 Z " fill="#020203" transform="translate(308.375,182.4375)"/>
<path d="M0 0 C2.70567626 1.82339052 4.53728718 3.07457436 6 6 C6.17199251 9.80626901 6.04130648 13.51630842 3.8046875 16.703125 C1.37037636 18.9207697 -0.79649389 19.95760289 -4 20.625 C-8.19977529 19.75004681 -9.93868007 17.99012644 -13 15 C-14.60847182 11.78305636 -14.61309149 8.47862778 -14 5 C-9.48135443 -0.5888511 -6.96983704 -1.5357268 0 0 Z " fill="#060504" transform="translate(348,159)"/>
<path d="M0 0 C3.70219508 2.54525912 4.7681855 4.18864925 6 8.5 C6 12.48112565 5.5290797 13.96510436 3 17 C-0.03489564 19.5290797 -1.51887435 20 -5.5 20 C-9.81135075 18.7681855 -11.45474088 17.70219508 -14 14 C-15.05631455 9.2594664 -14.66309569 6.04811899 -12.0625 1.9375 C-7.95188101 -0.66309569 -4.7405336 -1.05631455 0 0 Z " fill="#050506" transform="translate(204,303)"/>
</svg>
