<?xml version="1.0" encoding="UTF-8"?>
<svg version="1.1" xmlns="http://www.w3.org/2000/svg" width="512" height="512">
<path d="M0 0 C7.96332212 7.20502298 15.08747552 14.98870492 21.64599609 23.48925781 C22.28770752 24.31635254 22.28770752 24.31635254 22.94238281 25.16015625 C58.10600085 70.77029387 73.03967998 127.64761574 66.12451172 184.69775391 C58.74233639 239.17788266 30.39818417 290.73267406 -13.35400391 324.48925781 C-13.90540039 324.91706543 -14.45679688 325.34487305 -15.02490234 325.78564453 C-40.93912439 345.76448812 -70.5959796 359.49814213 -102.60400391 366.36425781 C-103.48805908 366.55544189 -104.37211426 366.74662598 -105.28295898 366.94360352 C-121.89510278 370.23851238 -138.71068028 370.78822027 -155.59130859 370.76391602 C-157.63051538 370.76827714 -159.66972054 370.77346487 -161.70892334 370.77940369 C-167.17919496 370.79264127 -172.64939688 370.79339059 -178.11968136 370.79084039 C-182.7028817 370.78976217 -187.28606841 370.79467459 -191.86926579 370.79944581 C-202.67636361 370.8104839 -213.48342664 370.81100794 -224.29052734 370.80493164 C-235.42209212 370.79886941 -246.55353122 370.81127275 -257.68507457 370.83250171 C-267.27534053 370.85011539 -276.86556644 370.85612021 -286.45584798 370.85286397 C-292.17017251 370.85105372 -297.88440695 370.85366343 -303.59871674 370.86757851 C-308.96038119 370.88015163 -314.32184841 370.87821761 -319.68350983 370.86516762 C-321.64748705 370.86280279 -323.61147817 370.86553315 -325.57543945 370.87379074 C-328.26054321 370.88426574 -330.94498563 370.87615217 -333.63006592 370.86347961 C-334.40243804 370.8708539 -335.17481016 370.87822818 -335.97058749 370.88582593 C-342.49668554 370.82123593 -347.98895436 369.47804948 -353.10400391 365.17675781 C-358.29197217 358.98001794 -360.70486626 354.75737852 -360.56884766 346.64160156 C-359.92356705 340.17706309 -357.36028693 335.62488292 -352.35400391 331.48925781 C-345.81427213 326.79648698 -338.8910933 322.94670805 -331.79150391 319.17675781 C-329.67506685 318.04236974 -327.55918326 316.90694848 -325.44384766 315.77050781 C-324.41372559 315.2175 -323.38360352 314.66449219 -322.32226562 314.09472656 C-315.95005627 310.64813595 -309.65010156 307.07247809 -303.35400391 303.48925781 C-306.15271349 299.6799031 -308.97861379 295.91986197 -312.00244141 292.28613281 C-347.61156831 249.29026009 -364.35339394 193.60117504 -359.89306641 138.03222656 C-354.9673281 86.35682464 -332.87276258 40.18138116 -296.35400391 3.48925781 C-295.79632324 2.92754883 -295.23864258 2.36583984 -294.6640625 1.78710938 C-226.04775305 -66.48882154 -114.24510809 -75.76512424 0 0 Z " fill="#DFDFDF" transform="translate(402.35400390625,99.5107421875)"/>
<path d="M0 0 C7.96332212 7.20502298 15.08747552 14.98870492 21.64599609 23.48925781 C22.28770752 24.31635254 22.28770752 24.31635254 22.94238281 25.16015625 C58.10600085 70.77029387 73.03967998 127.64761574 66.12451172 184.69775391 C58.74233639 239.17788266 30.39818417 290.73267406 -13.35400391 324.48925781 C-13.90540039 324.91706543 -14.45679688 325.34487305 -15.02490234 325.78564453 C-40.93912439 345.76448812 -70.5959796 359.49814213 -102.60400391 366.36425781 C-103.48805908 366.55544189 -104.37211426 366.74662598 -105.28295898 366.94360352 C-121.89510278 370.23851238 -138.71068028 370.78822027 -155.59130859 370.76391602 C-157.63051538 370.76827714 -159.66972054 370.77346487 -161.70892334 370.77940369 C-167.17919496 370.79264127 -172.64939688 370.79339059 -178.11968136 370.79084039 C-182.7028817 370.78976217 -187.28606841 370.79467459 -191.86926579 370.79944581 C-202.67636361 370.8104839 -213.48342664 370.81100794 -224.29052734 370.80493164 C-235.42209212 370.79886941 -246.55353122 370.81127275 -257.68507457 370.83250171 C-267.27534053 370.85011539 -276.86556644 370.85612021 -286.45584798 370.85286397 C-292.17017251 370.85105372 -297.88440695 370.85366343 -303.59871674 370.86757851 C-308.96038119 370.88015163 -314.32184841 370.87821761 -319.68350983 370.86516762 C-321.64748705 370.86280279 -323.61147817 370.86553315 -325.57543945 370.87379074 C-328.26054321 370.88426574 -330.94498563 370.87615217 -333.63006592 370.86347961 C-334.40243804 370.8708539 -335.17481016 370.87822818 -335.97058749 370.88582593 C-342.49668554 370.82123593 -347.98895436 369.47804948 -353.10400391 365.17675781 C-358.29197217 358.98001794 -360.70486626 354.75737852 -360.56884766 346.64160156 C-359.92356705 340.17706309 -357.36028693 335.62488292 -352.35400391 331.48925781 C-345.81427213 326.79648698 -338.8910933 322.94670805 -331.79150391 319.17675781 C-329.67506685 318.04236974 -327.55918326 316.90694848 -325.44384766 315.77050781 C-324.41372559 315.2175 -323.38360352 314.66449219 -322.32226562 314.09472656 C-315.95005627 310.64813595 -309.65010156 307.07247809 -303.35400391 303.48925781 C-306.15271349 299.6799031 -308.97861379 295.91986197 -312.00244141 292.28613281 C-347.61156831 249.29026009 -364.35339394 193.60117504 -359.89306641 138.03222656 C-354.9673281 86.35682464 -332.87276258 40.18138116 -296.35400391 3.48925781 C-295.79632324 2.92754883 -295.23864258 2.36583984 -294.6640625 1.78710938 C-226.04775305 -66.48882154 -114.24510809 -75.76512424 0 0 Z M-201.35400391 -5.51074219 C-201.98274414 -5.28660645 -202.61148438 -5.0624707 -203.25927734 -4.83154297 C-223.64649906 2.59485631 -242.00976024 13.1938652 -258.35400391 27.48925781 C-258.86672852 27.93495117 -259.37945312 28.38064453 -259.90771484 28.83984375 C-272.89116374 40.20133627 -283.28552748 52.82707248 -292.35400391 67.48925781 C-292.74330078 68.11670898 -293.13259766 68.74416016 -293.53369141 69.390625 C-303.54874583 85.76591113 -310.48926257 103.68659774 -314.35400391 122.48925781 C-314.63219971 123.83310547 -314.63219971 123.83310547 -314.91601562 125.20410156 C-316.63274579 134.71120316 -316.72628357 144.16786036 -316.72460938 153.79785156 C-316.72896426 156.58884608 -316.76535078 159.37823065 -316.80322266 162.16894531 C-316.87851586 174.42820699 -315.3530244 185.61818327 -312.35400391 197.48925781 C-312.10996826 198.52993408 -311.86593262 199.57061035 -311.61450195 200.64282227 C-303.77064881 233.6190894 -283.1212924 264.87954307 -257.35400391 286.48925781 C-255.57327153 287.99848839 -253.80278718 289.51987467 -252.04150391 291.05175781 C-251.22037109 291.75429688 -250.39923828 292.45683594 -249.55322266 293.18066406 C-245.67275093 297.25412551 -243.92473757 301.24889615 -243.91650391 306.86425781 C-244.12184607 313.16997333 -245.62663219 317.81444786 -250.17822266 322.27832031 C-251.41429689 323.3363798 -252.67482889 324.36686867 -253.96337891 325.36035156 C-254.42228516 325.73289062 -254.88119141 326.10542969 -255.35400391 326.48925781 C-255.35400391 326.81925781 -255.35400391 327.14925781 -255.35400391 327.48925781 C-240.17432807 327.58355346 -224.99466584 327.65364747 -209.81476116 327.6965065 C-202.76320677 327.71695374 -195.71183643 327.74472295 -188.66040039 327.79101562 C-182.49971472 327.83144053 -176.33916255 327.85681933 -170.17834789 327.86561179 C-166.92945278 327.87073482 -163.68101858 327.88462898 -160.43222618 327.91217804 C-113.5525589 328.2932497 -70.23889928 316.75738302 -34.35400391 285.48925781 C-33.38978516 284.65910156 -32.42556641 283.82894531 -31.43212891 282.97363281 C-8.88201632 263.18775123 7.30632543 236.90376074 16.64599609 208.48925781 C17.01080078 207.45027344 17.37560547 206.41128906 17.75146484 205.34082031 C31.39277299 163.00572605 25.2085822 116.77438007 5.64599609 77.48925781 C-0.47010567 65.96504875 -7.88076581 55.39231813 -16.35400391 45.48925781 C-16.82418945 44.93931152 -17.294375 44.38936523 -17.77880859 43.82275391 C-47.00020959 10.08064193 -89.54510479 -10.91303028 -134.04785156 -14.36132812 C-156.82548694 -15.83707583 -179.7989656 -13.21374425 -201.35400391 -5.51074219 Z " fill="#000000" transform="translate(402.35400390625,99.5107421875)"/>
<path d="M0 0 C13.17382116 9.94041485 21.99060354 24.85013094 25.03515625 41.0390625 C26.91257277 59.92471325 23.47565051 77.67812756 11.86328125 92.8828125 C9.68126706 95.38980752 7.42449475 97.72950158 5.03515625 100.0390625 C4.25269531 100.79574219 3.47023438 101.55242187 2.6640625 102.33203125 C-1.79949157 106.48135111 -6.4188764 110.09512282 -11.40234375 113.6015625 C-15.78965025 116.81519465 -17.97525719 118.9007358 -19.359375 124.125 C-20.83385609 128.7862628 -24.13978413 132.0181133 -28.33203125 134.36328125 C-34.17919124 136.89586574 -39.24015028 138.41966655 -45.44140625 136.12109375 C-52.27377462 133.00722675 -57.12214207 129.19525498 -59.96484375 122.0390625 C-61.1107468 110.71327657 -59.57972495 101.80242423 -52.90234375 92.4765625 C-46.9038411 85.21454547 -39.13081765 79.88903042 -31.58984375 74.3515625 C-25.20346047 69.58659259 -21.18260058 65.89163497 -18.96484375 58.0390625 C-18.11320795 50.8136051 -18.07323787 44.5964929 -22.5390625 38.62109375 C-26.52083149 34.20296652 -30.64036568 31.51114832 -36.578125 30.66796875 C-43.39464483 30.50026855 -47.76099238 31.53643933 -52.96484375 36.0390625 C-57.46421611 40.89364847 -59.08781091 44.8211549 -59.83984375 51.3515625 C-61.07600078 59.78762652 -63.70900438 64.40056824 -70.28125 69.875 C-75.55539419 73.52162406 -82.89322511 72.70634594 -88.96484375 72.0390625 C-94.5017851 70.04639371 -98.02273561 66.6008966 -101.02734375 61.6015625 C-105.85512304 50.34795852 -103.15966586 37.90392711 -98.80810547 26.95263672 C-96.45525168 21.6134161 -93.3337065 16.7931263 -89.96484375 12.0390625 C-89.49433594 11.36488281 -89.02382812 10.69070312 -88.5390625 9.99609375 C-66.63295816 -18.24274872 -27.72780525 -18.33907541 0 0 Z " fill="#010101" transform="translate(294.96484375,161.9609375)"/>
<path d="M0 0 C5.40349706 2.29073202 8.9386898 6.99435814 11.9765625 11.8671875 C14.13076922 17.36343456 13.91064044 24.23446249 11.75 29.67578125 C8.19525377 35.42326496 3.32046274 39.67514072 -3.234375 41.6015625 C-10.67462505 43.11937351 -15.99238089 41.02157732 -22.1875 37 C-26.11201501 33.43142937 -28.89344512 29.34005776 -29.55859375 24.046875 C-29.70760067 16.64911988 -29.25955875 11.58853471 -24.1875 6 C-17.0997149 -1.06965777 -9.65213186 -2.91633614 0 0 Z " fill="#020202" transform="translate(264.1875,321)"/>
</svg>
