<?xml version="1.0" encoding="UTF-8"?>
<svg version="1.1" xmlns="http://www.w3.org/2000/svg" width="512" height="512">
<path d="M0 0 C1.54785243 -0.0025864 3.09570419 -0.00560032 4.64355505 -0.0090034 C8.88544678 -0.01704433 13.12732157 -0.01886134 17.36922002 -0.01960087 C21.94880832 -0.02145649 26.52838794 -0.02900634 31.10797119 -0.03573608 C41.11638154 -0.04929895 51.12478788 -0.05534084 61.13320589 -0.05974674 C67.38616171 -0.06251246 73.63911599 -0.06675039 79.89207077 -0.07125092 C97.21550461 -0.08344058 114.53893722 -0.09374071 131.86237526 -0.09712601 C132.97039425 -0.09734557 134.07841325 -0.09756514 135.22000857 -0.09779136 C136.88593739 -0.09811878 136.88593739 -0.09811878 138.58552134 -0.09845281 C140.83593472 -0.09889627 143.0863481 -0.09934283 145.33676147 -0.09979248 C146.45303627 -0.10001391 147.56931107 -0.10023534 148.71941237 -0.10046348 C166.80280551 -0.10441063 184.88615833 -0.1218635 202.9695359 -0.145152 C221.54952227 -0.16888632 240.12948841 -0.18132879 258.70949018 -0.18249393 C269.1358131 -0.18340948 279.56208347 -0.18913171 289.98839188 -0.20731354 C298.86717568 -0.22274256 307.74589069 -0.22781844 316.62468536 -0.21957543 C321.15097279 -0.21567895 325.67712179 -0.21654945 330.20339203 -0.23063278 C334.35500139 -0.24343174 338.50636915 -0.24212203 342.65797846 -0.23004207 C344.15192434 -0.22809541 345.64588769 -0.23111528 347.13980909 -0.23988643 C361.21828703 -0.31724529 374.71016653 0.73082175 385.85775757 10.14044189 C389.76582414 14.18282827 393.16018886 17.99089684 394.91244507 23.39044189 C395.22439819 24.29794189 395.53635132 25.20544189 395.85775757 26.14044189 C397.83760238 26.86477536 399.84359195 27.51788161 401.85775757 28.14044189 C411.21738067 33.93369698 417.77276837 42.69434166 420.4235875 53.43256712 C420.92602045 56.56619056 420.98707346 59.54182495 420.99197865 62.71643829 C420.99433088 63.36664826 420.99668311 64.01685822 420.99910662 64.68677151 C421.00577113 66.86865149 421.00533917 69.05047156 421.00492859 71.23236084 C421.00822881 72.81133537 421.01195471 74.39030906 421.01607007 75.96928167 C421.02608031 80.31109257 421.02980529 84.65288964 421.03245938 88.99471045 C421.03636534 93.67658417 421.04594351 98.35844697 421.05467224 103.04031372 C421.07442874 114.34873382 421.08450199 125.65715481 421.09340003 136.96558785 C421.09778441 142.29256514 421.10315084 147.61954144 421.1083889 152.94651794 C421.12540063 170.65757287 421.13989433 188.36862718 421.14713764 206.07968903 C421.1490475 210.6751353 421.15096784 215.27058157 421.15292358 219.86602783 C421.15340732 221.00818636 421.15389106 222.15034489 421.15438946 223.32711428 C421.16268802 241.82524376 421.18802225 260.32330853 421.22050426 278.82140976 C421.25358977 297.81827059 421.27158777 316.81509856 421.27478188 335.81198835 C421.27694563 346.47588075 421.28567451 357.1396788 421.31124306 367.80354309 C421.33297044 376.88629007 421.34099044 385.96891978 421.33127628 395.0516898 C421.32673746 399.68318618 421.32859345 404.31444071 421.34803772 408.94590378 C421.36571219 413.19262594 421.36463716 417.43893058 421.34914043 421.68565744 C421.34677083 423.21534396 421.35105401 424.74505971 421.36296908 426.27470165 C421.46296543 439.96932098 419.63498477 451.95067346 409.85775757 462.14044189 C400.15315902 471.93286486 389.25773067 474.31607725 375.75450739 474.4052044 C373.61435228 474.40803395 371.47434224 474.40130641 369.334198 474.39440918 C367.76939356 474.39671653 366.20459021 474.39989489 364.6397891 474.40386367 C360.36046251 474.41218258 356.08122556 474.40809964 351.80189872 474.40189123 C347.17879373 474.39735583 342.55570388 474.4043559 337.93260193 474.40985107 C328.88407919 474.4187351 319.83558966 474.41682747 310.78706563 474.41102579 C303.43183757 474.40650542 296.07661881 474.40589803 288.72138977 474.40807343 C287.1499601 474.40853312 287.1499601 474.40853312 285.54678437 474.40900211 C283.41843402 474.40964157 281.29008367 474.41029 279.16173333 474.41094729 C259.21342154 474.41664769 239.26512814 474.41009725 219.31681937 474.39934656 C202.20757211 474.39041132 185.09835199 474.39196344 167.98910522 474.40118408 C148.11120866 474.41189184 128.23332822 474.41609839 108.35542917 474.40995955 C106.23499457 474.40932247 104.11455997 474.40869373 101.99412537 474.40807343 C100.95088457 474.40776487 99.90764378 474.40745632 98.83278963 474.40713842 C91.4880759 474.405413 84.14337242 474.40832329 76.79866028 474.41303253 C67.84552333 474.41864697 58.89242144 474.41711305 49.9392885 474.40647104 C45.37300969 474.40122194 40.80678929 474.39914463 36.24051094 474.40576935 C32.05715645 474.41174664 27.8739143 474.40842438 23.69056994 474.39781424 C22.18060783 474.39558776 20.67063615 474.39669955 19.16068023 474.40156582 C4.04154141 474.44653821 -8.79260649 472.81114254 -20.31411743 462.17950439 C-23.55418918 458.56557821 -28.14224243 453.18982745 -28.14224243 448.14044189 C-28.87571899 448.03860596 -29.60919556 447.93677002 -30.36489868 447.83184814 C-38.09936842 445.90638943 -44.14488863 438.73363826 -48.14224243 432.14044189 C-51.74578189 425.24520774 -53.26442785 419.35955456 -53.27646351 411.54603481 C-53.27881574 410.89383688 -53.28116797 410.24163895 -53.28359148 409.56967744 C-53.2902562 407.3810448 -53.28982402 405.19247187 -53.28941345 403.00382996 C-53.29271365 401.42001794 -53.29643955 399.83620675 -53.30055493 398.25239664 C-53.31056528 393.89725356 -53.31429017 389.54212426 -53.31694424 385.18697131 C-53.32085014 380.49080167 -53.33042827 375.79464291 -53.3391571 371.09848022 C-53.35891317 359.75595317 -53.36898653 348.41342523 -53.37788489 337.07088527 C-53.3822691 331.72833803 -53.38763556 326.38579178 -53.39287376 321.04324532 C-53.409885 303.28157602 -53.42437903 285.51990735 -53.43162251 267.75823116 C-53.43353237 263.14971351 -53.43545271 258.54119586 -53.43740845 253.93267822 C-53.43789219 252.78726677 -53.43837593 251.64185531 -53.43887433 250.46173442 C-53.44717415 231.90796401 -53.47251076 213.35425808 -53.50498912 194.80051582 C-53.53806798 175.74828922 -53.55607201 156.69609537 -53.55926675 137.6438399 C-53.56143104 126.94812144 -53.57016808 116.25249702 -53.59572792 105.55680656 C-53.61744615 96.44768067 -53.62547977 87.33867167 -53.61576114 78.22952282 C-53.61121975 73.58397377 -53.61309333 68.93866585 -53.63252258 64.29314995 C-53.6501785 60.03476104 -53.64913696 55.77678873 -53.63362529 51.51839525 C-53.6312529 49.98334301 -53.63555354 48.44826173 -53.64745394 46.91325378 C-53.74632135 33.31070059 -51.66348261 22.30993673 -42.14224243 12.14044189 C-41.61888306 11.57583252 -41.09552368 11.01122314 -40.55630493 10.42950439 C-29.35503526 -0.33464256 -14.48331508 -0.00969393 0 0 Z " fill="#EDEDEB" transform="translate(72.14224243164063,18.85955810546875)"/>
<path d="M0 0 C1.54785243 -0.0025864 3.09570419 -0.00560032 4.64355505 -0.0090034 C8.88544678 -0.01704433 13.12732157 -0.01886134 17.36922002 -0.01960087 C21.94880832 -0.02145649 26.52838794 -0.02900634 31.10797119 -0.03573608 C41.11638154 -0.04929895 51.12478788 -0.05534084 61.13320589 -0.05974674 C67.38616171 -0.06251246 73.63911599 -0.06675039 79.89207077 -0.07125092 C97.21550461 -0.08344058 114.53893722 -0.09374071 131.86237526 -0.09712601 C132.97039425 -0.09734557 134.07841325 -0.09756514 135.22000857 -0.09779136 C136.88593739 -0.09811878 136.88593739 -0.09811878 138.58552134 -0.09845281 C140.83593472 -0.09889627 143.0863481 -0.09934283 145.33676147 -0.09979248 C146.45303627 -0.10001391 147.56931107 -0.10023534 148.71941237 -0.10046348 C166.80280551 -0.10441063 184.88615833 -0.1218635 202.9695359 -0.145152 C221.54952227 -0.16888632 240.12948841 -0.18132879 258.70949018 -0.18249393 C269.1358131 -0.18340948 279.56208347 -0.18913171 289.98839188 -0.20731354 C298.86717568 -0.22274256 307.74589069 -0.22781844 316.62468536 -0.21957543 C321.15097279 -0.21567895 325.67712179 -0.21654945 330.20339203 -0.23063278 C334.35500139 -0.24343174 338.50636915 -0.24212203 342.65797846 -0.23004207 C344.15192434 -0.22809541 345.64588769 -0.23111528 347.13980909 -0.23988643 C361.21828703 -0.31724529 374.71016653 0.73082175 385.85775757 10.14044189 C389.76582414 14.18282827 393.16018886 17.99089684 394.91244507 23.39044189 C395.22439819 24.29794189 395.53635132 25.20544189 395.85775757 26.14044189 C397.83760238 26.86477536 399.84359195 27.51788161 401.85775757 28.14044189 C411.21738067 33.93369698 417.77276837 42.69434166 420.4235875 53.43256712 C420.92602045 56.56619056 420.98707346 59.54182495 420.99197865 62.71643829 C420.99433088 63.36664826 420.99668311 64.01685822 420.99910662 64.68677151 C421.00577113 66.86865149 421.00533917 69.05047156 421.00492859 71.23236084 C421.00822881 72.81133537 421.01195471 74.39030906 421.01607007 75.96928167 C421.02608031 80.31109257 421.02980529 84.65288964 421.03245938 88.99471045 C421.03636534 93.67658417 421.04594351 98.35844697 421.05467224 103.04031372 C421.07442874 114.34873382 421.08450199 125.65715481 421.09340003 136.96558785 C421.09778441 142.29256514 421.10315084 147.61954144 421.1083889 152.94651794 C421.12540063 170.65757287 421.13989433 188.36862718 421.14713764 206.07968903 C421.1490475 210.6751353 421.15096784 215.27058157 421.15292358 219.86602783 C421.15340732 221.00818636 421.15389106 222.15034489 421.15438946 223.32711428 C421.16268802 241.82524376 421.18802225 260.32330853 421.22050426 278.82140976 C421.25358977 297.81827059 421.27158777 316.81509856 421.27478188 335.81198835 C421.27694563 346.47588075 421.28567451 357.1396788 421.31124306 367.80354309 C421.33297044 376.88629007 421.34099044 385.96891978 421.33127628 395.0516898 C421.32673746 399.68318618 421.32859345 404.31444071 421.34803772 408.94590378 C421.36571219 413.19262594 421.36463716 417.43893058 421.34914043 421.68565744 C421.34677083 423.21534396 421.35105401 424.74505971 421.36296908 426.27470165 C421.46296543 439.96932098 419.63498477 451.95067346 409.85775757 462.14044189 C400.15315902 471.93286486 389.25773067 474.31607725 375.75450739 474.4052044 C373.61435228 474.40803395 371.47434224 474.40130641 369.334198 474.39440918 C367.76939356 474.39671653 366.20459021 474.39989489 364.6397891 474.40386367 C360.36046251 474.41218258 356.08122556 474.40809964 351.80189872 474.40189123 C347.17879373 474.39735583 342.55570388 474.4043559 337.93260193 474.40985107 C328.88407919 474.4187351 319.83558966 474.41682747 310.78706563 474.41102579 C303.43183757 474.40650542 296.07661881 474.40589803 288.72138977 474.40807343 C287.1499601 474.40853312 287.1499601 474.40853312 285.54678437 474.40900211 C283.41843402 474.40964157 281.29008367 474.41029 279.16173333 474.41094729 C259.21342154 474.41664769 239.26512814 474.41009725 219.31681937 474.39934656 C202.20757211 474.39041132 185.09835199 474.39196344 167.98910522 474.40118408 C148.11120866 474.41189184 128.23332822 474.41609839 108.35542917 474.40995955 C106.23499457 474.40932247 104.11455997 474.40869373 101.99412537 474.40807343 C100.95088457 474.40776487 99.90764378 474.40745632 98.83278963 474.40713842 C91.4880759 474.405413 84.14337242 474.40832329 76.79866028 474.41303253 C67.84552333 474.41864697 58.89242144 474.41711305 49.9392885 474.40647104 C45.37300969 474.40122194 40.80678929 474.39914463 36.24051094 474.40576935 C32.05715645 474.41174664 27.8739143 474.40842438 23.69056994 474.39781424 C22.18060783 474.39558776 20.67063615 474.39669955 19.16068023 474.40156582 C4.04154141 474.44653821 -8.79260649 472.81114254 -20.31411743 462.17950439 C-23.55418918 458.56557821 -28.14224243 453.18982745 -28.14224243 448.14044189 C-28.87571899 448.03860596 -29.60919556 447.93677002 -30.36489868 447.83184814 C-38.09936842 445.90638943 -44.14488863 438.73363826 -48.14224243 432.14044189 C-51.74578189 425.24520774 -53.26442785 419.35955456 -53.27646351 411.54603481 C-53.27881574 410.89383688 -53.28116797 410.24163895 -53.28359148 409.56967744 C-53.2902562 407.3810448 -53.28982402 405.19247187 -53.28941345 403.00382996 C-53.29271365 401.42001794 -53.29643955 399.83620675 -53.30055493 398.25239664 C-53.31056528 393.89725356 -53.31429017 389.54212426 -53.31694424 385.18697131 C-53.32085014 380.49080167 -53.33042827 375.79464291 -53.3391571 371.09848022 C-53.35891317 359.75595317 -53.36898653 348.41342523 -53.37788489 337.07088527 C-53.3822691 331.72833803 -53.38763556 326.38579178 -53.39287376 321.04324532 C-53.409885 303.28157602 -53.42437903 285.51990735 -53.43162251 267.75823116 C-53.43353237 263.14971351 -53.43545271 258.54119586 -53.43740845 253.93267822 C-53.43789219 252.78726677 -53.43837593 251.64185531 -53.43887433 250.46173442 C-53.44717415 231.90796401 -53.47251076 213.35425808 -53.50498912 194.80051582 C-53.53806798 175.74828922 -53.55607201 156.69609537 -53.55926675 137.6438399 C-53.56143104 126.94812144 -53.57016808 116.25249702 -53.59572792 105.55680656 C-53.61744615 96.44768067 -53.62547977 87.33867167 -53.61576114 78.22952282 C-53.61121975 73.58397377 -53.61309333 68.93866585 -53.63252258 64.29314995 C-53.6501785 60.03476104 -53.64913696 55.77678873 -53.63362529 51.51839525 C-53.6312529 49.98334301 -53.63555354 48.44826173 -53.64745394 46.91325378 C-53.74632135 33.31070059 -51.66348261 22.30993673 -42.14224243 12.14044189 C-41.61888306 11.57583252 -41.09552368 11.01122314 -40.55630493 10.42950439 C-29.35503526 -0.33464256 -14.48331508 -0.00969393 0 0 Z M-23.14224243 119.14044189 C-23.24536743 171.85794189 -23.34849243 224.57544189 -23.45474243 278.89044189 C-23.50026245 295.53965088 -23.54578247 312.18885986 -23.59268188 329.34259033 C-23.60940346 344.25936631 -23.60940346 344.25936631 -23.61946106 359.17614746 C-23.62412163 365.82321013 -23.64245331 372.47006241 -23.67012024 379.11706543 C-23.70199784 386.78705592 -23.71641033 394.4568448 -23.70946718 402.126902 C-23.70646126 406.04865888 -23.71115201 409.96996541 -23.73831809 413.89163923 C-23.76728087 418.09838674 -23.75717724 422.30416138 -23.74351501 426.51098633 C-23.75807834 427.72467518 -23.77264166 428.93836403 -23.78764629 430.18883133 C-23.70604097 439.55428393 -21.51413048 447.49123181 -15.96646118 455.14044189 C-7.7149034 462.86402066 -0.97254701 466.25702846 10.42651653 466.27466297 C11.4006471 466.27819132 11.4006471 466.27819132 12.39445707 466.28179094 C14.57362161 466.28845532 16.75272617 466.2880235 18.93190002 466.28761292 C20.50888783 466.29091312 22.0858748 466.29463902 23.66286069 466.29875439 C27.99906186 466.30876442 32.33524919 466.31248957 36.67146027 466.3151437 C41.3471416 466.31904964 46.02281199 466.32862768 50.69848633 466.33735657 C61.99057586 466.35711132 73.28266627 466.36718528 84.57476875 466.37608436 C89.89266882 466.3804683 95.2105679 466.38583478 100.52846718 466.39107323 C118.20607261 466.40808343 135.88367743 466.42257811 153.56128979 466.42982197 C158.14782398 466.43173185 162.73435816 466.43365219 167.32089233 466.43560791 C168.46084718 466.43609165 169.60080203 466.43657539 170.77530096 466.43707379 C189.24635777 466.44537608 207.71734987 466.47071729 226.18837842 466.50318859 C245.15245441 466.5362549 264.11649749 466.55427029 283.08060247 466.55746621 C293.72819077 466.55963154 304.37568465 466.56838384 315.02324486 466.59392738 C324.08997462 466.61562838 333.15658703 466.62368768 342.22333982 466.6139606 C346.84838876 466.60941438 351.47319552 466.61132099 356.09821129 466.63072205 C360.33552495 466.64834314 364.57241955 466.64736464 368.8097376 466.63182475 C370.33937073 466.6294471 371.8690328 466.63378046 373.3986217 466.6456534 C385.5508419 466.73410843 395.85168949 464.89526773 404.85775757 456.14044189 C409.96942251 449.81333662 413.11029048 443.64523373 413.10385323 435.37336159 C413.10783497 434.2394083 413.11181671 433.10545502 413.11591911 431.93713951 C413.11009378 430.70208483 413.10426846 429.46703014 413.0982666 428.19454956 C413.09997864 426.87770172 413.10169067 425.56085388 413.10345459 424.20410156 C413.10793659 420.5478249 413.09991906 416.89166557 413.08990303 413.23540381 C413.08116804 409.23247438 413.08409236 405.22955035 413.08553886 401.226614 C413.08660211 393.45663918 413.07736816 385.68671059 413.06453621 377.91674765 C413.05013747 368.92905197 413.04854678 359.94138407 413.04696655 350.95367432 C413.03646543 327.22425618 413.00854321 303.49484834 412.98275757 279.76544189 C412.94150757 226.75919189 412.90025757 173.75294189 412.85775757 119.14044189 C268.97775757 119.14044189 125.09775757 119.14044189 -23.14224243 119.14044189 Z " fill="#040406" transform="translate(72.14224243164063,18.85955810546875)"/>
<path d="M0 0 C1.60024978 -0.00477325 3.20049348 -0.01217294 4.80072051 -0.02194923 C9.16894121 -0.04107423 13.53631958 -0.02307753 17.90448439 0.00134361 C22.62639694 0.02116609 27.34821995 0.00620952 32.07014465 -0.00430298 C41.30800225 -0.01939274 50.54553649 -0.00255078 59.78335389 0.02524792 C70.54575867 0.05646565 81.30809433 0.05618764 92.07053588 0.05473018 C111.27396478 0.05322978 130.47724355 0.0806749 149.68061829 0.12428284 C168.30759923 0.16655985 186.93444808 0.18779426 205.56147766 0.18580627 C206.70920364 0.18568641 207.85692962 0.18556654 209.03943517 0.18544304 C210.18519361 0.18532197 211.33095205 0.18520091 212.51143044 0.18507618 C233.73144663 0.18300588 254.95140681 0.20067887 276.17140483 0.22753583 C283.67089898 0.23657809 291.17038283 0.23977368 298.66988182 0.24113274 C307.80858156 0.24318065 316.94718684 0.25659594 326.08584651 0.28413116 C330.74721613 0.2979663 335.4084651 0.30712859 340.06985664 0.30334854 C344.33888179 0.30005455 348.60764042 0.31067213 352.87661002 0.33229411 C354.41878743 0.33771689 355.96099246 0.33814176 357.50317081 0.33299225 C370.25226196 0.29514326 378.36177117 1.46583609 387.75752258 10.46827698 C405.24835344 28.81001312 395.92549133 57.5604292 395.92549133 80.74171448 C252.04549133 80.74171448 108.16549133 80.74171448 -40.07450867 80.74171448 C-40.07450867 18.5590203 -40.07450867 18.5590203 -30.54296762 8.94194216 C-21.45239103 0.83917901 -11.64337557 -0.12681742 0 0 Z " fill="#8E8FFA" transform="translate(89.07450866699219,49.25828552246094)"/>
<path d="M0 0 C0.64989024 -0.00265183 1.29978049 -0.00530365 1.96936437 -0.00803584 C4.16218784 -0.01573759 6.35495538 -0.01628835 8.54779148 -0.01688576 C10.12987757 -0.02089983 11.71196264 -0.02533796 13.29404646 -0.03016531 C17.65370623 -0.04214327 22.01335492 -0.04778212 26.37302792 -0.05234647 C31.0705975 -0.05829809 35.76815381 -0.06990919 40.46571445 -0.08063698 C51.81797273 -0.10517345 63.17023541 -0.11979118 74.52251205 -0.13269705 C77.72887559 -0.13640846 80.93523869 -0.14038175 84.1416018 -0.14444971 C104.05094233 -0.16968876 123.96028354 -0.19174285 143.86963654 -0.20417786 C148.4826155 -0.20710759 153.09559443 -0.21006924 157.70857334 -0.21308327 C158.8551158 -0.21382932 160.00165826 -0.21457537 161.18294442 -0.21534403 C179.74979104 -0.22799339 198.31654181 -0.2612098 216.88334363 -0.3028851 C235.94454637 -0.34531936 255.00570006 -0.36887474 274.0669499 -0.37409842 C284.7694298 -0.37751114 295.47175999 -0.38924978 306.17419338 -0.42220116 C315.2907029 -0.45022347 324.40703202 -0.46119146 333.52358126 -0.4500057 C338.17321974 -0.44482439 342.82248057 -0.44767139 347.47206402 -0.47247124 C351.73430825 -0.49501472 355.99590469 -0.49418459 360.25816066 -0.47526737 C361.79462242 -0.47247445 363.33112858 -0.47802635 364.86751913 -0.4930803 C376.64521486 -0.60136281 386.57407712 0.9578655 395.40168858 9.32451439 C398.65168858 12.77929081 398.65168858 12.77929081 398.65168858 15.13701439 C397.84544912 15.13761148 397.03920967 15.13820857 396.20853871 15.13882375 C348.4181846 15.17472212 300.62789344 15.23136791 252.83759768 15.31493534 C247.09862628 15.32495273 241.3596546 15.33479687 235.62068272 15.34453392 C234.47816267 15.34647529 233.33564263 15.34841667 232.15850077 15.35041687 C213.66196943 15.38143313 195.16545051 15.39841648 176.66889807 15.41020861 C157.68799127 15.42262209 138.70714956 15.45012799 119.72628385 15.49162745 C108.01523432 15.51675713 96.30429273 15.53013205 84.59321586 15.52844396 C76.56115089 15.52841419 68.52919583 15.54305191 60.49717369 15.56917867 C55.86395758 15.58381797 51.23096687 15.59203321 46.59773159 15.58281708 C42.3514959 15.5745138 38.10571254 15.58472967 33.85954384 15.60935101 C32.3277397 15.61502217 30.79589251 15.61403854 29.26410153 15.60552683 C15.25151252 15.53436705 4.14586613 18.39600747 -6.34831142 28.13701439 C-8.80927743 31.29466934 -10.69676602 34.49514505 -12.34831142 38.13701439 C-12.86022439 39.19192825 -13.37213736 40.24684212 -13.89956284 41.33372307 C-16.29854668 47.84842074 -15.7707823 54.8333933 -15.74703884 61.67717552 C-15.7524817 63.26800816 -15.75923468 64.85883676 -15.76718074 66.44965887 C-15.78518416 70.80983576 -15.78465167 75.16984213 -15.78105128 79.53004742 C-15.780427 84.23618184 -15.79705154 88.94225927 -15.81156826 93.64836693 C-15.8343532 101.79827866 -15.8462392 109.94814765 -15.85069752 118.09808922 C-15.85715926 129.88148788 -15.88009712 141.66480928 -15.90704081 153.4481768 C-15.95030965 172.56645034 -15.98027587 191.68472062 -16.00187588 210.80303001 C-16.02288527 229.37335878 -16.05016003 247.94366093 -16.08586025 266.51396751 C-16.08805908 267.65887203 -16.0902579 268.80377654 -16.09252336 269.98337513 C-16.103593 275.72709362 -16.11478581 281.47081186 -16.12603986 287.21452999 C-16.21922635 334.85533458 -16.2908237 382.49615426 -16.34831142 430.13701439 C-19.73184373 428.53897795 -21.86904148 426.85136132 -24.41081142 424.07451439 C-25.08241299 423.36166283 -25.75401455 422.64881126 -26.44596767 421.91435814 C-32.1801529 413.54268319 -31.78216868 404.25418409 -31.74944973 394.48142052 C-31.75506011 392.89002747 -31.76196463 391.29863856 -31.7700457 389.70725614 C-31.78834423 385.34970236 -31.78800555 380.99232173 -31.78446257 376.63473833 C-31.78384915 371.92907465 -31.8004201 367.22346591 -31.81463528 362.51782799 C-31.83952547 353.30473348 -31.84779844 344.09169656 -31.84947241 334.87857123 C-31.85089916 327.38841478 -31.85706976 319.89827729 -31.86657429 312.40812683 C-31.89298502 291.16179253 -31.90683366 269.91550365 -31.90458287 248.66915282 C-31.904463 247.52441384 -31.90434313 246.37967485 -31.90421963 245.20024681 C-31.90409699 244.05410675 -31.90397434 242.90796668 -31.90384798 241.7270951 C-31.90262854 223.15089864 -31.93134098 204.57488458 -31.97363473 185.99874087 C-32.01674122 166.91473558 -32.03744449 147.83081922 -32.0348534 128.746764 C-32.03385807 118.03653559 -32.04207368 107.32649845 -32.07438755 96.61631393 C-32.10172259 87.49808195 -32.1082121 78.38012798 -32.08785928 69.26187273 C-32.07807372 64.61214206 -32.07785548 59.96294458 -32.10391903 55.31326485 C-32.12756391 51.05114626 -32.12317221 46.78998218 -32.09706663 42.52788643 C-32.09247232 40.99160864 -32.09787034 39.45525903 -32.11464686 37.91906597 C-32.22338489 27.24987459 -30.73877887 18.11168486 -23.33826929 9.9091298 C-16.72111974 3.62139918 -9.11434795 0.01828246 0 0 Z " fill="#5A51C2" transform="translate(58.34831142425537,26.862985610961914)"/>
<path d="M0 0 C1.12814621 -0.00761353 2.25629242 -0.01522705 3.41862488 -0.02307129 C5.80323069 -0.03386597 8.18788377 -0.03672798 10.57250977 -0.03222656 C14.20735303 -0.03125617 17.84007177 -0.07284885 21.47460938 -0.1171875 C23.79556853 -0.12239623 26.116535 -0.12508267 28.4375 -0.125 C29.51796097 -0.14139526 30.59842194 -0.15779053 31.71162415 -0.17468262 C38.55268742 -0.11253607 43.14786191 0.97736772 48.41796875 5.46875 C52.15341209 9.58731573 53.53823193 11.96505739 53.57910156 17.46582031 C53.58870911 18.50740295 53.59831665 19.5489856 53.60821533 20.62213135 C53.61246521 21.75229675 53.61671509 22.88246216 53.62109375 24.046875 C53.62679382 25.20620544 53.6324939 26.36553589 53.6383667 27.55999756 C53.64782745 30.0180164 53.65435493 32.47604799 53.65820312 34.93408203 C53.6678929 38.68935418 53.69890049 42.44407552 53.73046875 46.19921875 C53.73700023 48.58593425 53.74225013 50.97265366 53.74609375 53.359375 C53.75844055 54.48144348 53.77078735 55.60351196 53.7835083 56.75958252 C53.76462336 63.39326501 53.36562207 68.20649795 48.734375 73.33203125 C48.15558594 73.81027344 47.57679688 74.28851563 46.98046875 74.78125 C46.40425781 75.27238281 45.82804687 75.76351562 45.234375 76.26953125 C41.85427349 78.50112515 38.39547323 78.60503245 34.42504883 78.67749023 C33.43334183 78.69678085 32.44163483 78.71607147 31.4198761 78.73594666 C26.88697256 78.79399963 22.35422164 78.84296677 17.82104492 78.8737793 C15.43613189 78.89534681 13.05129774 78.92943436 10.66674805 78.97631836 C7.21497509 79.04351255 3.76483585 79.07081161 0.3125 79.08984375 C-0.74406296 79.11767441 -1.80062592 79.14550507 -2.88920593 79.17417908 C-10.24105444 79.15393253 -15.2361951 77.67287324 -20.58203125 72.46875 C-25.26773263 66.63722326 -25.15628626 60.15212406 -25.078125 52.9609375 C-25.07958023 51.87668488 -25.08103546 50.79243225 -25.08253479 49.67532349 C-25.0808819 47.39436136 -25.06938952 45.11338737 -25.04858398 42.83251953 C-25.01956247 39.34749936 -25.0280024 35.86399609 -25.04101562 32.37890625 C-25.03477944 30.15624263 -25.02638945 27.9335838 -25.015625 25.7109375 C-25.01856064 24.67331268 -25.02149628 23.63568787 -25.02452087 22.56661987 C-24.93353783 15.57468693 -23.95908922 11.15857875 -19.20703125 5.78125 C-12.87850114 0.20611633 -8.23164793 0.00152594 0 0 Z " fill="#F7DC61" transform="translate(109.58203125,270.53125)"/>
<path d="M0 0 C0.97491394 -0.0127597 1.94982788 -0.02551941 2.95428467 -0.03866577 C4.52620575 -0.04200424 4.52620575 -0.04200424 6.12988281 -0.04541016 C7.75763641 -0.05539536 7.75763641 -0.05539536 9.41827393 -0.06558228 C11.71470445 -0.07570552 14.01116437 -0.0803994 16.30761719 -0.08007812 C19.80616344 -0.08443919 23.30343573 -0.12073047 26.80175781 -0.15869141 C29.03612851 -0.16456215 31.27050519 -0.16852982 33.50488281 -0.17041016 C34.54473328 -0.18478119 35.58458374 -0.19915222 36.65594482 -0.21395874 C44.07241037 -0.1677467 49.2890607 0.87693783 54.88066101 5.90795898 C59.91269048 11.58654915 59.91790536 17.13777371 59.77441406 24.45458984 C59.7730394 25.6054306 59.77166473 26.75627136 59.77024841 27.94198608 C59.76122015 30.36425103 59.7376786 32.78650058 59.70043945 35.20849609 C59.64557567 38.91094782 59.63891161 42.61114839 59.63964844 46.31396484 C59.6249036 48.67335925 59.60741892 51.03273846 59.58691406 53.39208984 C59.58190636 55.04695908 59.58190636 55.04695908 59.57679749 56.73526001 C59.44357936 63.93801101 58.53261465 68.45414048 53.70800781 74.04052734 C49.63472378 77.53191366 46.08657653 78.53279107 40.77709961 78.61279297 C39.74219894 78.63200806 38.70729828 78.65122314 37.64103699 78.67102051 C36.53262955 78.67952026 35.42422211 78.68802002 34.28222656 78.69677734 C33.13188431 78.70817749 31.98154205 78.71957764 30.79634094 78.73132324 C28.36467146 78.75019471 25.93295117 78.76327989 23.5012207 78.77099609 C19.79384559 78.79040516 16.08869069 78.85246968 12.38183594 78.91552734 C10.0153126 78.92858905 7.64877346 78.93908935 5.28222656 78.94677734 C3.62872444 78.98381775 3.62872444 78.98381775 1.94181824 79.02160645 C-4.31487658 78.98564756 -8.53147539 78.31891039 -13.3012085 74.08996582 C-19.08323921 67.65073228 -19.52397695 61.25776356 -19.48339844 52.85302734 C-19.48959702 51.77351807 -19.49579559 50.69400879 -19.50218201 49.58178711 C-19.50925646 47.30925392 -19.50614793 45.03666865 -19.4934082 42.76416016 C-19.47953262 39.3006197 -19.51366432 35.83977809 -19.55175781 32.37646484 C-19.55270904 30.16031835 -19.55084998 27.94416851 -19.54589844 25.72802734 C-19.55915665 24.7007251 -19.57241486 23.67342285 -19.58607483 22.61499023 C-19.49992464 15.91569699 -18.25412118 11.473995 -13.91699219 6.29052734 C-9.57528688 2.26650779 -5.95718737 0.05310274 0 0 Z " fill="#F7DC61" transform="translate(103.9169921875,169.70947265625)"/>
<path d="M0 0 C1.14942581 -0.00099701 2.29885162 -0.00199402 3.48310852 -0.00302124 C5.89937296 0.00163736 8.31564918 0.0209591 10.73168945 0.05419922 C14.42552436 0.10155921 18.11648357 0.09528482 21.81054688 0.08203125 C24.16538175 0.09318103 26.52020452 0.10739842 28.875 0.125 C29.9751091 0.12317719 31.0752182 0.12135437 32.20866394 0.11947632 C39.4752696 0.25376393 43.16914521 1.18285973 48.3828125 6.359375 C51.62139699 10.49696455 52.85931394 12.49993086 52.9152832 17.70776367 C52.93453606 19.2652961 52.93453606 19.2652961 52.95417786 20.85429382 C52.96156479 21.98132217 52.96895172 23.10835052 52.9765625 24.26953125 C52.98463425 25.42649002 52.99270599 26.58344879 53.00102234 27.77546692 C53.01487369 30.22928362 53.02559112 32.68311967 53.03344727 35.13696289 C53.05063134 38.88139685 53.09450636 42.62494154 53.13867188 46.36914062 C53.14880111 48.75259767 53.15731649 51.13606223 53.1640625 53.51953125 C53.18157059 54.63643845 53.19907867 55.75334564 53.21711731 56.90409851 C53.19901864 63.4252573 52.64296541 67.43346647 48.73828125 72.7265625 C44.26781503 76.96777404 39.95046703 78.96732592 33.78369141 79.0012207 C32.82564606 79.01075272 31.86760071 79.02028473 30.88052368 79.03010559 C29.8564743 79.02919418 28.83242493 79.02828278 27.77734375 79.02734375 C26.713414 79.03162888 25.64948425 79.035914 24.55331421 79.04032898 C22.30573233 79.04606434 20.05813188 79.0465784 17.81054688 79.04223633 C14.38248807 79.03908018 10.9552957 79.06253304 7.52734375 79.08789062 C5.33984483 79.09016416 3.15234361 79.09086686 0.96484375 79.08984375 C-0.05515717 79.0990535 -1.07515808 79.10826324 -2.12606812 79.11775208 C-8.72189496 79.07514925 -14.02877492 78.55292921 -19.1875 74.04296875 C-19.64511719 73.46417969 -20.10273437 72.88539063 -20.57421875 72.2890625 C-21.04472656 71.71285156 -21.51523438 71.13664062 -22 70.54296875 C-24.51435954 66.92322514 -25.51271699 64.24403647 -25.55224609 59.80957031 C-25.5650058 58.83465637 -25.5777655 57.85974243 -25.59091187 56.85528564 C-25.59313751 55.80733826 -25.59536316 54.75939087 -25.59765625 53.6796875 C-25.60431305 52.59451843 -25.61096985 51.50934937 -25.61782837 50.39129639 C-25.62795162 48.09486586 -25.63264549 45.79840594 -25.63232422 43.50195312 C-25.63668529 40.00340687 -25.67297656 36.50613459 -25.7109375 33.0078125 C-25.71680825 30.7734418 -25.72077591 28.53906512 -25.72265625 26.3046875 C-25.73702728 25.26483704 -25.75139832 24.22498657 -25.76620483 23.15362549 C-25.72725649 16.90289436 -25.28205712 11.72257649 -21.26171875 6.7265625 C-14.88245893 0.48705949 -8.61234334 -0.14499976 0 0 Z " fill="#F7DC61" transform="translate(110.26171875,371.2734375)"/>
<path d="M0 0 C1.12814621 -0.00761353 2.25629242 -0.01522705 3.41862488 -0.02307129 C5.80323069 -0.03386597 8.18788377 -0.03672798 10.57250977 -0.03222656 C14.20735303 -0.03125617 17.84007177 -0.07284885 21.47460938 -0.1171875 C23.79556853 -0.12239623 26.116535 -0.12508267 28.4375 -0.125 C29.51796097 -0.14139526 30.59842194 -0.15779053 31.71162415 -0.17468262 C38.55268742 -0.11253607 43.14786191 0.97736772 48.41796875 5.46875 C52.15341209 9.58731573 53.53823193 11.96505739 53.57910156 17.46582031 C53.58870911 18.50740295 53.59831665 19.5489856 53.60821533 20.62213135 C53.61246521 21.75229675 53.61671509 22.88246216 53.62109375 24.046875 C53.62679382 25.20620544 53.6324939 26.36553589 53.6383667 27.55999756 C53.64782745 30.0180164 53.65435493 32.47604799 53.65820312 34.93408203 C53.6678929 38.68935418 53.69890049 42.44407552 53.73046875 46.19921875 C53.73700023 48.58593425 53.74225013 50.97265366 53.74609375 53.359375 C53.75844055 54.48144348 53.77078735 55.60351196 53.7835083 56.75958252 C53.76462336 63.39326501 53.36562207 68.20649795 48.734375 73.33203125 C48.15558594 73.81027344 47.57679688 74.28851563 46.98046875 74.78125 C46.40425781 75.27238281 45.82804687 75.76351562 45.234375 76.26953125 C41.85427349 78.50112515 38.39547323 78.60503245 34.42504883 78.67749023 C33.43334183 78.69678085 32.44163483 78.71607147 31.4198761 78.73594666 C26.88697256 78.79399963 22.35422164 78.84296677 17.82104492 78.8737793 C15.43613189 78.89534681 13.05129774 78.92943436 10.66674805 78.97631836 C7.21497509 79.04351255 3.76483585 79.07081161 0.3125 79.08984375 C-0.74406296 79.11767441 -1.80062592 79.14550507 -2.88920593 79.17417908 C-10.24105444 79.15393253 -15.2361951 77.67287324 -20.58203125 72.46875 C-25.26773263 66.63722326 -25.15628626 60.15212406 -25.078125 52.9609375 C-25.07958023 51.87668488 -25.08103546 50.79243225 -25.08253479 49.67532349 C-25.0808819 47.39436136 -25.06938952 45.11338737 -25.04858398 42.83251953 C-25.01956247 39.34749936 -25.0280024 35.86399609 -25.04101562 32.37890625 C-25.03477944 30.15624263 -25.02638945 27.9335838 -25.015625 25.7109375 C-25.01856064 24.67331268 -25.02149628 23.63568787 -25.02452087 22.56661987 C-24.93353783 15.57468693 -23.95908922 11.15857875 -19.20703125 5.78125 C-12.87850114 0.20611633 -8.23164793 0.00152594 0 0 Z M-16.42993164 13.57250977 C-18.17229366 17.95259891 -18.02989251 22.13528687 -18.015625 26.80859375 C-18.02086685 27.80830704 -18.0261087 28.80802032 -18.0315094 29.83802795 C-18.03792191 31.94856845 -18.0366026 34.05914472 -18.02807617 36.16967773 C-18.0195695 39.39176343 -18.04833395 42.61207384 -18.08007812 45.83398438 C-18.08169041 47.8880203 -18.08111209 49.94205936 -18.078125 51.99609375 C-18.08935898 52.95563461 -18.10059296 53.91517548 -18.11216736 54.90379333 C-18.05316293 60.59206769 -17.47959051 64.0197262 -13.58203125 68.46875 C-10.63911737 71.07291715 -8.82888056 71.84535318 -4.90869141 71.85693359 C-3.5267308 71.87111832 -3.5267308 71.87111832 -2.11685181 71.8855896 C-1.12825165 71.87951691 -0.13965149 71.87344421 0.87890625 71.8671875 C2.41389267 71.87149277 2.41389267 71.87149277 3.97988892 71.87588501 C6.14349928 71.87792539 8.3071281 71.87239736 10.47070312 71.85986328 C13.77386029 71.84384268 17.0757877 71.85969634 20.37890625 71.87890625 C22.48307561 71.87692317 24.5872442 71.87307815 26.69140625 71.8671875 C27.67595795 71.87326019 28.66050964 71.87933289 29.67489624 71.8855896 C34.9511563 71.83180106 38.96842068 71.62874912 43.41796875 68.46875 C47.58700735 63.96096669 46.86805641 58.2263811 46.8515625 52.4375 C46.85680435 51.3688269 46.8620462 50.30015381 46.8674469 49.19909668 C46.87386083 46.94312406 46.87253828 44.68711797 46.86401367 42.43115234 C46.85549859 38.98083993 46.8842839 35.53218041 46.91601562 32.08203125 C46.91762763 29.88802133 46.91705012 27.69400848 46.9140625 25.5 C46.92529648 24.46967651 46.93653046 23.43935303 46.94810486 22.37780762 C46.90590953 18.03950253 46.8481021 15.23576716 44.69946289 11.40429688 C39.28490638 6.8107598 33.88690578 7.14857216 27.078125 7.1328125 C26.07841171 7.1261557 25.07869843 7.1194989 24.0486908 7.11264038 C21.93815954 7.10253274 19.82759645 7.09782278 17.71704102 7.09814453 C14.49506859 7.09376982 11.27446479 7.05742528 8.05273438 7.01953125 C5.99870259 7.01366296 3.94466431 7.00969365 1.890625 7.0078125 C0.93108414 6.99344147 -0.02845673 6.97907043 -1.01707458 6.96426392 C-7.84495831 7.01072064 -11.77460613 8.27261019 -16.42993164 13.57250977 Z " fill="#040403" transform="translate(109.58203125,270.53125)"/>
<path d="M0 0 C0.97491394 -0.0127597 1.94982788 -0.02551941 2.95428467 -0.03866577 C4.52620575 -0.04200424 4.52620575 -0.04200424 6.12988281 -0.04541016 C7.75763641 -0.05539536 7.75763641 -0.05539536 9.41827393 -0.06558228 C11.71470445 -0.07570552 14.01116437 -0.0803994 16.30761719 -0.08007812 C19.80616344 -0.08443919 23.30343573 -0.12073047 26.80175781 -0.15869141 C29.03612851 -0.16456215 31.27050519 -0.16852982 33.50488281 -0.17041016 C34.54473328 -0.18478119 35.58458374 -0.19915222 36.65594482 -0.21395874 C44.07241037 -0.1677467 49.2890607 0.87693783 54.88066101 5.90795898 C59.91269048 11.58654915 59.91790536 17.13777371 59.77441406 24.45458984 C59.7730394 25.6054306 59.77166473 26.75627136 59.77024841 27.94198608 C59.76122015 30.36425103 59.7376786 32.78650058 59.70043945 35.20849609 C59.64557567 38.91094782 59.63891161 42.61114839 59.63964844 46.31396484 C59.6249036 48.67335925 59.60741892 51.03273846 59.58691406 53.39208984 C59.58190636 55.04695908 59.58190636 55.04695908 59.57679749 56.73526001 C59.44357936 63.93801101 58.53261465 68.45414048 53.70800781 74.04052734 C49.63472378 77.53191366 46.08657653 78.53279107 40.77709961 78.61279297 C39.74219894 78.63200806 38.70729828 78.65122314 37.64103699 78.67102051 C36.53262955 78.67952026 35.42422211 78.68802002 34.28222656 78.69677734 C33.13188431 78.70817749 31.98154205 78.71957764 30.79634094 78.73132324 C28.36467146 78.75019471 25.93295117 78.76327989 23.5012207 78.77099609 C19.79384559 78.79040516 16.08869069 78.85246968 12.38183594 78.91552734 C10.0153126 78.92858905 7.64877346 78.93908935 5.28222656 78.94677734 C3.62872444 78.98381775 3.62872444 78.98381775 1.94181824 79.02160645 C-4.31487658 78.98564756 -8.53147539 78.31891039 -13.3012085 74.08996582 C-19.08323921 67.65073228 -19.52397695 61.25776356 -19.48339844 52.85302734 C-19.48959702 51.77351807 -19.49579559 50.69400879 -19.50218201 49.58178711 C-19.50925646 47.30925392 -19.50614793 45.03666865 -19.4934082 42.76416016 C-19.47953262 39.3006197 -19.51366432 35.83977809 -19.55175781 32.37646484 C-19.55270904 30.16031835 -19.55084998 27.94416851 -19.54589844 25.72802734 C-19.55915665 24.7007251 -19.57241486 23.67342285 -19.58607483 22.61499023 C-19.49992464 15.91569699 -18.25412118 11.473995 -13.91699219 6.29052734 C-9.57528688 2.26650779 -5.95718737 0.05310274 0 0 Z M-10.76489258 13.39428711 C-12.5072546 17.77437625 -12.36485345 21.95706422 -12.35058594 26.63037109 C-12.35582779 27.63008438 -12.36106964 28.62979767 -12.36647034 29.6598053 C-12.37288285 31.77034579 -12.37156354 33.88092206 -12.36303711 35.99145508 C-12.35453043 39.21354077 -12.38329489 42.43385118 -12.41503906 45.65576172 C-12.41665134 47.70979765 -12.41607303 49.7638367 -12.41308594 51.81787109 C-12.42431992 52.77741196 -12.43555389 53.73695282 -12.4471283 54.72557068 C-12.38812386 60.41384503 -11.81455145 63.84150354 -7.91699219 68.29052734 C-4.94132805 70.93330544 -3.10339573 71.66728491 0.86401367 71.67871094 C2.28084694 71.69289566 2.28084694 71.69289566 3.7263031 71.70736694 C4.73991409 71.70129425 5.75352509 71.69522156 6.79785156 71.68896484 C7.84574356 71.69183502 8.89363556 71.6947052 9.97328186 71.69766235 C12.18816671 71.69970272 14.4030696 71.69417478 16.61791992 71.68164062 C20.00448028 71.66560324 23.38984423 71.68148255 26.77636719 71.70068359 C28.92936461 71.69870084 31.08236129 71.69485651 33.23535156 71.68896484 C34.24693832 71.69503754 35.25852509 71.70111023 36.30076599 71.70736694 C43.2332745 71.71046656 43.2332745 71.71046656 49.08300781 68.29052734 C53.13643684 63.71266096 52.5505976 58.30408876 52.55175781 52.51318359 C52.55937134 51.46907822 52.56698486 50.42497284 52.5748291 49.34922791 C52.58561825 47.14454536 52.58848804 44.93981176 52.58398438 42.73510742 C52.58301212 39.36794564 52.62464812 36.00306339 52.66894531 32.63623047 C52.67415261 30.49105292 52.6768405 28.34586746 52.67675781 26.20068359 C52.69315308 25.19739517 52.70954834 24.19410675 52.72644043 23.16041565 C52.68236329 18.68703903 52.63392443 15.33641628 49.79589844 11.73364258 C46.07271785 8.38070268 43.51325218 7.04835179 38.50146484 7 C37.60017853 6.9872403 36.69889221 6.97448059 35.77029419 6.96133423 C34.80356781 6.95910858 33.83684143 6.95688293 32.84082031 6.95458984 C31.83969208 6.94793304 30.83856384 6.94127625 29.80709839 6.93441772 C27.69059077 6.92429918 25.57405131 6.91960046 23.45751953 6.91992188 C20.22667604 6.91555259 16.99720308 6.87923455 13.76660156 6.84130859 C11.70801247 6.83543944 9.64941691 6.83147071 7.59082031 6.82958984 C6.6281424 6.81521881 5.66546448 6.80084778 4.6736145 6.78604126 C-2.16590234 6.83241164 -6.10102728 8.08466533 -10.76489258 13.39428711 Z " fill="#060504" transform="translate(103.9169921875,169.70947265625)"/>
<path d="M0 0 C1.14942581 -0.00099701 2.29885162 -0.00199402 3.48310852 -0.00302124 C5.89937296 0.00163736 8.31564918 0.0209591 10.73168945 0.05419922 C14.42552436 0.10155921 18.11648357 0.09528482 21.81054688 0.08203125 C24.16538175 0.09318103 26.52020452 0.10739842 28.875 0.125 C29.9751091 0.12317719 31.0752182 0.12135437 32.20866394 0.11947632 C39.4752696 0.25376393 43.16914521 1.18285973 48.3828125 6.359375 C51.62139699 10.49696455 52.85931394 12.49993086 52.9152832 17.70776367 C52.93453606 19.2652961 52.93453606 19.2652961 52.95417786 20.85429382 C52.96156479 21.98132217 52.96895172 23.10835052 52.9765625 24.26953125 C52.98463425 25.42649002 52.99270599 26.58344879 53.00102234 27.77546692 C53.01487369 30.22928362 53.02559112 32.68311967 53.03344727 35.13696289 C53.05063134 38.88139685 53.09450636 42.62494154 53.13867188 46.36914062 C53.14880111 48.75259767 53.15731649 51.13606223 53.1640625 53.51953125 C53.18157059 54.63643845 53.19907867 55.75334564 53.21711731 56.90409851 C53.19901864 63.4252573 52.64296541 67.43346647 48.73828125 72.7265625 C44.26781503 76.96777404 39.95046703 78.96732592 33.78369141 79.0012207 C32.82564606 79.01075272 31.86760071 79.02028473 30.88052368 79.03010559 C29.8564743 79.02919418 28.83242493 79.02828278 27.77734375 79.02734375 C26.713414 79.03162888 25.64948425 79.035914 24.55331421 79.04032898 C22.30573233 79.04606434 20.05813188 79.0465784 17.81054688 79.04223633 C14.38248807 79.03908018 10.9552957 79.06253304 7.52734375 79.08789062 C5.33984483 79.09016416 3.15234361 79.09086686 0.96484375 79.08984375 C-0.05515717 79.0990535 -1.07515808 79.10826324 -2.12606812 79.11775208 C-8.72189496 79.07514925 -14.02877492 78.55292921 -19.1875 74.04296875 C-19.64511719 73.46417969 -20.10273437 72.88539063 -20.57421875 72.2890625 C-21.04472656 71.71285156 -21.51523438 71.13664062 -22 70.54296875 C-24.51435954 66.92322514 -25.51271699 64.24403647 -25.55224609 59.80957031 C-25.5650058 58.83465637 -25.5777655 57.85974243 -25.59091187 56.85528564 C-25.59313751 55.80733826 -25.59536316 54.75939087 -25.59765625 53.6796875 C-25.60431305 52.59451843 -25.61096985 51.50934937 -25.61782837 50.39129639 C-25.62795162 48.09486586 -25.63264549 45.79840594 -25.63232422 43.50195312 C-25.63668529 40.00340687 -25.67297656 36.50613459 -25.7109375 33.0078125 C-25.71680825 30.7734418 -25.72077591 28.53906512 -25.72265625 26.3046875 C-25.73702728 25.26483704 -25.75139832 24.22498657 -25.76620483 23.15362549 C-25.72725649 16.90289436 -25.28205712 11.72257649 -21.26171875 6.7265625 C-14.88245893 0.48705949 -8.61234334 -0.14499976 0 0 Z M-16.26171875 12.7265625 C-18.04169653 15.68170774 -18.51912475 17.8749926 -18.55224609 21.30810547 C-18.5650058 22.20939178 -18.5777655 23.1106781 -18.59091187 24.03927612 C-18.59313751 25.0060025 -18.59536316 25.97272888 -18.59765625 26.96875 C-18.60431305 27.96987823 -18.61096985 28.97100647 -18.61782837 30.00247192 C-18.62794692 32.11897954 -18.63264564 34.235519 -18.63232422 36.35205078 C-18.6366935 39.58289427 -18.67301155 42.81236723 -18.7109375 46.04296875 C-18.71680665 48.10155784 -18.72077538 50.1601534 -18.72265625 52.21875 C-18.73702728 53.18142792 -18.75139832 54.14410583 -18.76620483 55.13595581 C-18.72769405 60.81620176 -18.22840262 64.33072703 -14.26171875 68.7265625 C-9.75037028 72.68510604 -4.65662023 72.17761393 1.04296875 72.16015625 C2.53898117 72.16801903 2.53898117 72.16801903 4.06521606 72.17604065 C6.17156037 72.18245371 8.27794053 72.18113315 10.38427734 72.17260742 C13.59538092 72.16410987 16.80469759 72.1928497 20.015625 72.22460938 C22.06640572 72.22622192 24.11718957 72.22564283 26.16796875 72.22265625 C27.12234833 72.23389023 28.07672791 72.24512421 29.06002808 72.25669861 C35.14028104 72.19362292 38.78588887 71.32930356 43.73828125 67.7265625 C45.88876247 64.50084066 45.99605777 63.5979637 46.02880859 59.87548828 C46.0415683 58.89081573 46.054328 57.90614319 46.06747437 56.89163208 C46.06970001 55.82911224 46.07192566 54.76659241 46.07421875 53.671875 C46.08087555 52.57817596 46.08753235 51.48447693 46.09439087 50.3576355 C46.10452164 48.04264001 46.10920776 45.72761529 46.10888672 43.41259766 C46.11325574 39.87223086 46.14956107 36.33311456 46.1875 32.79296875 C46.19336886 30.5442751 46.19733779 28.29557552 46.19921875 26.046875 C46.21358978 24.98840363 46.22796082 23.92993225 46.24276733 22.83938599 C46.21316072 16.96980727 46.21316072 16.96980727 43.95947266 11.64404297 C40.38823661 8.56111398 37.68675985 7.48090211 32.97314453 7.42016602 C32.03181671 7.40417862 31.09048889 7.38819122 30.12063599 7.37171936 C29.11016205 7.36635666 28.09968811 7.36099396 27.05859375 7.35546875 C25.49031326 7.34192604 25.49031326 7.34192604 23.89035034 7.32810974 C21.67969627 7.31360976 19.46899931 7.30472114 17.25830078 7.30102539 C13.88239999 7.28912987 10.50832758 7.23994055 7.1328125 7.18945312 C4.98308182 7.17998855 2.83333994 7.17275368 0.68359375 7.16796875 C-0.32283173 7.14843643 -1.3292572 7.12890411 -2.36618042 7.10877991 C-8.79718791 7.15002578 -11.90485836 7.88032882 -16.26171875 12.7265625 Z " fill="#040403" transform="translate(110.26171875,371.2734375)"/>
<path d="M0 0 C75.9 0 151.8 0 230 0 C230.33 1.65 230.66 3.3 231 5 C228.3471749 7.6528251 226.39273876 7.24386844 222.78369141 7.26748681 C221.90374512 7.26302537 221.02379883 7.25856392 220.1171875 7.25396729 C218.72016602 7.25864726 218.72016602 7.25864726 217.29492188 7.26342177 C214.1548847 7.27143833 211.01503882 7.26506393 207.875 7.25878906 C205.63167202 7.2614973 203.38834493 7.26505729 201.14501953 7.26940918 C195.0377384 7.27855533 188.93052455 7.27497977 182.82324219 7.26865101 C176.44465955 7.26360251 170.06608285 7.26827925 163.6875 7.27142334 C152.28686846 7.27529998 140.88627433 7.26906799 129.48564911 7.25890467 C119.14145918 7.24996874 108.79731412 7.25152065 98.453125 7.26074219 C86.45085756 7.27143679 74.44862404 7.27543375 62.4463501 7.26951766 C56.08922243 7.26639271 49.7321257 7.26600297 43.375 7.27259064 C37.39968779 7.27834964 31.42446069 7.27439379 25.44915771 7.26280212 C23.25046938 7.26014778 21.05177393 7.26093373 18.85308838 7.26532745 C15.86289827 7.27075389 12.87298476 7.26398426 9.8828125 7.25396729 C9.00286621 7.25842873 8.12291992 7.26289017 7.21630859 7.26748681 C1.22830001 7.22830001 1.22830001 7.22830001 -1 5 C-0.67 3.35 -0.34 1.7 0 0 Z " fill="#040404" transform="translate(210,390)"/>
<path d="M0 0 C29.13920099 -0.02279463 58.27840112 -0.04050039 87.41760924 -0.05106533 C90.85490357 -0.05231609 94.29219788 -0.05361041 97.72949219 -0.05493164 C98.41381835 -0.05519395 99.09814451 -0.05545626 99.80320783 -0.05572652 C110.89518558 -0.06008217 121.98715816 -0.06796914 133.07913284 -0.0771528 C144.45384724 -0.08649226 155.8285578 -0.09198134 167.20327628 -0.09408849 C173.59508053 -0.09539551 179.98687305 -0.09848078 186.37867355 -0.10573006 C192.38840479 -0.11249112 198.39811941 -0.11461678 204.40785408 -0.11310768 C206.61944354 -0.11338397 208.83103352 -0.11538858 211.04261971 -0.11920547 C214.0503557 -0.12414405 217.05802807 -0.12299765 220.06576538 -0.12025452 C220.95096686 -0.12316736 221.83616833 -0.1260802 222.7481941 -0.12908131 C228.77175758 -0.11412121 228.77175758 -0.11412121 231 1 C230.125 5.875 230.125 5.875 229 7 C226.0715287 7.10241425 223.16649429 7.13885055 220.23744202 7.13371277 C219.30694879 7.13597833 218.37645555 7.13824388 217.41776556 7.14057809 C214.27467317 7.14694901 211.13162355 7.14608676 207.98852539 7.14526367 C205.7453455 7.14825323 203.50216612 7.15165528 201.25898743 7.15544128 C195.14753427 7.16430598 189.03609509 7.16662042 182.92463613 7.16725707 C177.83233536 7.16820405 172.7400379 7.17187989 167.6477384 7.17542917 C156.32607369 7.18311669 145.00441768 7.18609694 133.68275125 7.18542381 C133.0028071 7.18538386 132.32286296 7.1853439 131.62231445 7.18530273 C130.94154441 7.18526185 130.26077436 7.18522097 129.55937492 7.18517885 C118.52241431 7.18477226 107.4854878 7.19434398 96.44853706 7.2084411 C85.12802797 7.22278682 73.80754072 7.22952892 62.48702043 7.22884732 C56.12651988 7.22859163 49.76605788 7.23148186 43.40556526 7.24202538 C37.42616948 7.25166587 31.44684946 7.25181353 25.4674511 7.24450874 C23.26714849 7.24345785 21.06684127 7.24585542 18.86654663 7.2518692 C15.87412086 7.25952115 12.88196116 7.2549898 9.88954163 7.24723816 C8.56859901 7.2549535 8.56859901 7.2549535 7.22097069 7.26282471 C1.22827117 7.22827117 1.22827117 7.22827117 -1 5 C-0.625 2.375 -0.625 2.375 0 0 Z " fill="#000000" transform="translate(210,289)"/>
<path d="M0 0 C0.87994629 0.00446144 1.75989258 0.00892289 2.66650391 0.01351953 C3.59785156 0.01039954 4.52919922 0.00727956 5.48876953 0.00406504 C8.6288067 -0.00395152 11.76865258 0.00242288 14.90869141 0.00869775 C17.15201939 0.00598951 19.39534648 0.00242952 21.63867188 -0.00192237 C27.74595301 -0.01106852 33.85316685 -0.00749296 39.96044922 -0.0011642 C46.33903185 0.0038843 52.71760856 -0.00079244 59.09619141 -0.00393653 C70.49682295 -0.00781317 81.89741708 -0.00158117 93.2980423 0.00858214 C103.64223223 0.01751808 113.98637728 0.01596616 124.33056641 0.00674462 C136.33283385 -0.00394998 148.33506737 -0.00794694 160.33734131 -0.00203085 C166.69446898 0.0010941 173.0515657 0.00148384 179.40869141 -0.00510383 C185.38400362 -0.01086283 191.35923072 -0.00690698 197.33453369 0.00468469 C199.53322203 0.00733903 201.73191748 0.00655308 203.93060303 0.00215936 C206.92079314 -0.00326708 209.91070665 0.00350256 212.90087891 0.01351953 C213.7808252 0.00905808 214.66077148 0.00459664 215.56738281 0 C221.5553914 0.0391868 221.5553914 0.0391868 223.78369141 2.26748681 C223.45369141 3.91748681 223.12369141 5.56748681 222.78369141 7.26748681 C146.88369141 7.26748681 70.98369141 7.26748681 -7.21630859 7.26748681 C-7.54630859 5.61748681 -7.87630859 3.96748681 -8.21630859 2.26748681 C-5.5634835 -0.38533829 -3.60904735 0.02361837 0 0 Z " fill="#000000" transform="translate(217.21630859375,187.7325131893158)"/>
<path d="M0 0 C1.02950177 -0.00233999 1.02950177 -0.00233999 2.07980156 -0.00472724 C4.39062492 -0.00873115 6.70138313 -0.00554995 9.01220703 -0.00241089 C10.66440876 -0.0037652 12.31661018 -0.0055453 13.96881104 -0.00772095 C18.46455877 -0.01229174 22.96028364 -0.01050717 27.4560318 -0.00734186 C32.15298018 -0.00481644 36.84992655 -0.00715631 41.546875 -0.00872803 C49.43571323 -0.01054919 57.3245421 -0.00814481 65.21337891 -0.00338745 C74.34401893 0.00205507 83.47463663 0.00029237 92.60527611 -0.00521386 C100.43373494 -0.0097465 108.26218703 -0.01039479 116.09064674 -0.00777519 C120.77102652 -0.00621325 125.45139579 -0.00601638 130.1317749 -0.00931168 C134.53117675 -0.01219258 138.93054971 -0.01021063 143.32994843 -0.00441742 C144.94811709 -0.00309101 146.56628816 -0.00348194 148.18445587 -0.00568008 C150.38635017 -0.00839622 152.5881508 -0.00500474 154.79003906 0 C156.02448761 0.00037703 157.25893616 0.00075405 158.53079224 0.0011425 C161.39501953 0.12698364 161.39501953 0.12698364 163.39501953 1.12698364 C163.39501953 3.10698364 163.39501953 5.08698364 163.39501953 7.12698364 C160.49671121 8.57613781 157.98450592 8.25298488 154.74534607 8.25396729 C154.05422244 8.25552728 153.3630988 8.25708727 152.65103203 8.25869453 C150.32405531 8.26269851 147.99714328 8.25951722 145.67016602 8.25637817 C144.00648968 8.25773247 142.34281365 8.25951256 140.67913818 8.26168823 C136.15246689 8.26625885 131.62581831 8.26447461 127.0991466 8.26130915 C122.37103382 8.25878406 117.64292304 8.26112346 112.91481018 8.26269531 C104.97469736 8.26451639 97.03459383 8.26211212 89.09448242 8.25735474 C79.90133846 8.25191036 70.70821667 8.25367629 61.51507324 8.25918114 C53.63482582 8.26371179 45.75458508 8.26436312 37.87433678 8.26174247 C33.16213083 8.26017967 28.44993532 8.25998605 23.73773003 8.26327896 C19.3096042 8.26615704 14.8815071 8.26418317 10.4533844 8.2583847 C8.8235078 8.25705684 7.19362879 8.25745166 5.56375313 8.25964737 C3.348372 8.26235782 1.13308443 8.2589791 -1.08229065 8.25396729 C-2.32503533 8.25359026 -3.56778002 8.25321323 -4.84818363 8.25282478 C-7.60498047 8.12698364 -7.60498047 8.12698364 -8.60498047 7.12698364 C-8.6457883 5.12740001 -8.64752403 3.1265311 -8.60498047 1.12698364 C-5.7172428 -0.31688519 -3.22788559 0.00098586 0 0 Z " fill="#0D0D17" transform="translate(298.60498046875,85.87301635742188)"/>
<path d="M0 0 C1.1596376 -0.00426498 2.31927521 -0.00852997 3.51405334 -0.01292419 C4.7977179 -0.01247101 6.08138245 -0.01201782 7.40394592 -0.0115509 C8.76043796 -0.01454086 10.11692914 -0.01794301 11.47341919 -0.02172852 C15.16759585 -0.0305894 18.86174937 -0.0329075 22.55593562 -0.0335443 C25.63512149 -0.03449169 28.71430192 -0.03816801 31.7934857 -0.0417164 C39.05556898 -0.0498689 46.31763985 -0.05229991 53.57972717 -0.05158997 C61.08180598 -0.05098896 68.58381293 -0.06154339 76.08587354 -0.07733363 C82.51729769 -0.0903902 88.94869829 -0.09577466 95.3801356 -0.09513456 C99.22553534 -0.09487901 103.07087126 -0.09776113 106.91625786 -0.10831261 C110.53183518 -0.11796201 114.14728726 -0.11809465 117.76286888 -0.11079597 C119.72818479 -0.10924415 121.69350059 -0.11761888 123.65879822 -0.12623596 C124.82125565 -0.12204147 125.98371307 -0.11784698 127.18139648 -0.11352539 C128.19591353 -0.11407016 129.21043058 -0.11461493 130.25569057 -0.1151762 C132.65419006 0.13371277 132.65419006 0.13371277 134.65419006 2.13371277 C134.09863451 6.68926832 134.09863451 6.68926832 132.65419006 8.13371277 C130.8745445 8.23444227 129.09087167 8.26448001 127.30838013 8.26742554 C126.14874252 8.27169052 124.98910492 8.27595551 123.79432678 8.28034973 C122.51066223 8.27989655 121.22699768 8.27944336 119.9044342 8.27897644 C118.54794217 8.2819664 117.19145099 8.28536854 115.83496094 8.28915405 C112.14078428 8.29801494 108.44663076 8.30033304 104.75244451 8.30096984 C101.67325864 8.30191722 98.59407821 8.30559355 95.51489443 8.30914193 C88.25281115 8.31729444 80.99074028 8.31972545 73.72865295 8.3190155 C66.22657415 8.3184145 58.7245672 8.32896893 51.22250658 8.34475917 C44.79108244 8.35781573 38.35968184 8.36320019 31.92824453 8.36256009 C28.08284479 8.36230455 24.23750886 8.36518667 20.39212227 8.37573814 C16.77654495 8.38538755 13.16109286 8.38552019 9.54551125 8.37822151 C7.58019534 8.37666969 5.61487954 8.38504441 3.64958191 8.3936615 C2.48712448 8.38946701 1.32466705 8.38527252 0.12698364 8.38095093 C-0.88753341 8.3814957 -1.90205046 8.38204046 -2.94731045 8.38260174 C-5.34580994 8.13371277 -5.34580994 8.13371277 -7.34580994 6.13371277 C-6.62880466 0.25426947 -5.71460016 0.00944325 0 0 Z " fill="#151515" transform="translate(216.34580993652344,222.8662872314453)"/>
<path d="M0 0 C1.17791107 -0.00281982 2.35582214 -0.00563965 3.56942749 -0.00854492 C4.87336456 -0.00652069 6.17730164 -0.00449646 7.52075195 -0.00241089 C8.89857021 -0.00376491 10.27638811 -0.00554484 11.65420532 -0.00772095 C15.40616868 -0.0122952 19.15810465 -0.01050576 22.91006851 -0.00734186 C26.82806728 -0.00481822 30.74606364 -0.00715581 34.6640625 -0.00872803 C41.24487735 -0.01054971 47.82568099 -0.00814345 54.40649414 -0.00338745 C62.02558763 0.00205517 69.64465437 0.00029251 77.26374722 -0.00521386 C83.79366759 -0.00974502 90.32357988 -0.01039552 96.85350132 -0.00777519 C100.75865175 -0.00621243 104.66378958 -0.00601861 108.56893921 -0.00931168 C112.23947788 -0.01219044 115.9099819 -0.0102146 119.58051682 -0.00441742 C121.57822369 -0.00245422 123.57593348 -0.00544369 125.57363892 -0.00854492 C126.75154999 -0.0057251 127.92946106 -0.00290527 129.14306641 0 C130.17325394 0.00037703 131.20344147 0.00075405 132.2648468 0.0011425 C134.5715332 0.12698364 134.5715332 0.12698364 135.5715332 1.12698364 C135.6965332 3.62698364 135.6965332 3.62698364 135.5715332 6.12698364 C133.83978187 7.85873498 131.50201894 7.25310396 129.14306641 7.25396729 C127.96515533 7.25678711 126.78724426 7.25960693 125.57363892 7.26251221 C124.26970184 7.26048798 122.96576477 7.25846375 121.62231445 7.25637817 C120.24449619 7.25773219 118.86667829 7.25951213 117.48886108 7.26168823 C113.73689773 7.26626249 109.98496175 7.26447304 106.23299789 7.26130915 C102.31499912 7.2587855 98.39700277 7.2611231 94.47900391 7.26269531 C87.89818906 7.264517 81.31738541 7.26211073 74.73657227 7.25735474 C67.11747877 7.25191212 59.49841204 7.25367477 51.87931919 7.25918114 C45.34939882 7.26371231 38.81948652 7.2643628 32.28956509 7.26174247 C28.38441466 7.26017972 24.47927683 7.25998589 20.5741272 7.26327896 C16.90358852 7.26615773 13.2330845 7.26418189 9.56254959 7.2583847 C7.56484271 7.2564215 5.56713292 7.25941097 3.56942749 7.26251221 C2.39151642 7.25969238 1.21360535 7.25687256 0 7.25396729 C-1.03018753 7.25359026 -2.06037506 7.25321323 -3.1217804 7.25282478 C-5.4284668 7.12698364 -5.4284668 7.12698364 -6.4284668 6.12698364 C-6.5534668 3.62698364 -6.5534668 3.62698364 -6.4284668 1.12698364 C-4.69671546 -0.60476769 -2.35895254 0.00086332 0 0 Z " fill="#000000" transform="translate(215.428466796875,424.8730163574219)"/>
<path d="M0 0 C1.51982735 0.00081715 1.51982735 0.00081715 3.07035828 0.00165081 C4.23137054 -0.00254368 5.39238281 -0.00673817 6.58857727 -0.01105976 C7.86864655 -0.00544025 9.14871582 0.00017925 10.46757507 0.00596905 C11.82421459 0.00489655 13.18085367 0.00295834 14.53749084 0.00021648 C18.2275167 -0.00464013 21.91742204 0.00303396 25.60743332 0.01316953 C29.46356322 0.02193704 33.31968919 0.02019283 37.17582703 0.01980877 C43.65232873 0.02074602 50.12878364 0.02943812 56.60527039 0.04307842 C64.09996754 0.05880459 71.59461344 0.06407656 79.0893259 0.06334287 C86.28999101 0.06273309 93.49063936 0.06783397 100.69129944 0.07613468 C103.75984325 0.07967106 106.82838113 0.08149844 109.89692688 0.08202839 C113.50839243 0.08303094 117.11981473 0.08912038 120.73126602 0.09919453 C122.6941763 0.10352204 124.65709545 0.10294694 126.62001038 0.10225201 C127.78102264 0.10651699 128.94203491 0.11078197 130.13822937 0.1151762 C131.1514476 0.11685205 132.16466583 0.11852789 133.20858765 0.12025452 C135.60429382 0.24888897 135.60429382 0.24888897 137.60429382 1.24888897 C137.64701482 2.91500802 137.64493214 4.58271782 137.60429382 6.24888897 C136.60429382 7.24888897 136.60429382 7.24888897 134.29481411 7.3719368 C132.74758459 7.37055411 132.74758459 7.37055411 131.1690979 7.36914349 C129.98974167 7.37051815 128.81038544 7.37189281 127.59529114 7.37330914 C126.28978302 7.36971386 124.9842749 7.36611858 123.63920593 7.36241436 C122.25976565 7.36213249 120.88032521 7.36229022 119.50088501 7.36285686 C115.74485264 7.36314485 111.98885193 7.35724802 108.23282695 7.35028291 C104.31169338 7.34404948 100.39055915 7.34344558 96.46942139 7.3422575 C89.03917772 7.33914415 81.60894869 7.33093072 74.17871147 7.32090801 C65.72177744 7.30974698 57.26484273 7.30423645 48.80790317 7.29921257 C31.40669157 7.28874811 14.00549424 7.2711486 -3.39570618 7.24888897 C-4.02070618 4.87388897 -4.02070618 4.87388897 -4.39570618 2.24888897 C-2.39570618 0.24888897 -2.39570618 0.24888897 0 0 Z " fill="#020202" transform="translate(213.3957061767578,323.7511110305786)"/>
<path d="M0 0 C3.5677811 2.35149209 5.84221079 4.99692157 7.75 8.8125 C8.25921186 14.92304235 7.83852244 17.95047331 3.75 22.8125 C1.44471818 25.38899145 -0.14512325 26.63112995 -3.58203125 27.1953125 C-9.27873704 27.45153615 -12.88065364 26.75556867 -17.25 22.8125 C-20.83231967 18.87194836 -20.80959103 14.5858271 -20.671875 9.4765625 C-19.89711341 4.58408651 -17.32388176 2.38578961 -13.4375 -0.5625 C-8.63065912 -1.93588311 -4.6064147 -1.68311307 0 0 Z " fill="#050508" transform="translate(169.25,77.1875)"/>
<path d="M0 0 C3.69186389 2.29315773 7.03497758 5.06995515 9 9 C9.5529679 14.41270498 9.51490212 18.60637234 6 23 C3.17985861 26.17265906 1.27454299 27.73571977 -3.05078125 28.23828125 C-8.54775239 28.41866545 -11.7545588 27.84111347 -16 24 C-18.81267618 19.96849747 -19.69392905 16.16675866 -19.5625 11.3203125 C-18.49532397 6.91821139 -15.31250745 3.93778941 -12 1 C-8.20585906 -0.89707047 -4.11078682 -0.75394343 0 0 Z " fill="#050507" transform="translate(91,76)"/>
<path d="M0 0 C4.6424664 1.6962858 7.62741674 3.61984628 10 8 C10.79448427 13.31007343 10.64735479 17.60569737 8.375 22.5 C4.72938546 26.33748898 1.7645957 27.81093617 -3.5 28.375 C-8.68879762 27.8190574 -11.76635201 26.3336735 -15.3125 22.5 C-18.1350365 18.31846444 -18.42121057 14.97028473 -18 10 C-14.11361608 2.37670847 -8.46679742 -1.38855478 0 0 Z " fill="#050507" transform="translate(128,76)"/>
<path d="M0 0 C0.72680664 2.22338867 0.72680664 2.22338867 1 5 C-0.44360352 7.2199707 -0.44360352 7.2199707 -2.62890625 9.42578125 C-3.41716797 10.22177734 -4.20542969 11.01777344 -5.01757812 11.83789062 C-6.27731445 13.06282227 -6.27731445 13.06282227 -7.5625 14.3125 C-8.37525391 15.14845703 -9.18800781 15.98441406 -10.02539062 16.84570312 C-10.82267578 17.63525391 -11.61996094 18.42480469 -12.44140625 19.23828125 C-13.53497437 20.321698 -13.53497437 20.321698 -14.65063477 21.42700195 C-17.64657557 23.43290932 -19.46110328 23.41282092 -23 23 C-25.30078125 21.42578125 -25.30078125 21.42578125 -27.3125 19.3125 C-27.98925781 18.62800781 -28.66601562 17.94351563 -29.36328125 17.23828125 C-31.19095127 14.73886617 -31.81090794 13.08168951 -32 10 C-31.34 9.34 -30.68 8.68 -30 8 C-26.61702587 8.17805127 -25.23727939 8.78837244 -22.6875 11.0625 C-22.130625 11.701875 -21.57375 12.34125 -21 13 C-16.95864413 11.40069566 -14.32092848 8.51339591 -11.375 5.4375 C-4.74839901 -1.4245197 -4.74839901 -1.4245197 0 0 Z " fill="#0E0C05" transform="translate(139,198)"/>
<path d="M0 0 C0.69996094 0.12117188 1.39992187 0.24234375 2.12109375 0.3671875 C2.79296875 2.640625 2.79296875 2.640625 3.12109375 5.3671875 C2.07421875 7.21875 2.07421875 7.21875 0.37109375 8.9921875 C-0.27085937 9.66507812 -0.9128125 10.33796875 -1.57421875 11.03125 C-2.33476562 11.80210937 -3.0953125 12.57296875 -3.87890625 13.3671875 C-4.79465341 14.35260379 -5.70862613 15.33967118 -6.62109375 16.328125 C-7.58058824 17.34251271 -8.54152139 18.35554158 -9.50390625 19.3671875 C-10.85355469 20.7903125 -10.85355469 20.7903125 -12.23046875 22.2421875 C-14.87890625 24.3671875 -14.87890625 24.3671875 -17.37890625 24.9765625 C-20.97652541 24.09964283 -22.67376217 22.23516361 -25.25390625 19.6171875 C-26.14851563 18.73546875 -27.043125 17.85375 -27.96484375 16.9453125 C-29.87890625 14.3671875 -29.87890625 14.3671875 -29.66796875 12.0390625 C-28.87890625 10.3671875 -28.87890625 10.3671875 -26.69140625 9.5546875 C-23.87890625 9.3671875 -23.87890625 9.3671875 -21.06640625 11.8046875 C-20.34453125 12.6503125 -19.62265625 13.4959375 -18.87890625 14.3671875 C-13.960765 12.50371911 -10.84070681 8.33022359 -7.38867188 4.53515625 C-3.49200027 0.44538402 -3.49200027 0.44538402 0 0 Z " fill="#0B0A04" transform="translate(136.87890625,297.6328125)"/>
<path d="M0 0 C0.69996094 0.12117188 1.39992187 0.24234375 2.12109375 0.3671875 C2.86376953 2.57470703 2.86376953 2.57470703 3.12109375 5.3671875 C1.56982422 7.69482422 1.56982422 7.69482422 -0.76171875 10.046875 C-2.01855469 11.3153125 -2.01855469 11.3153125 -3.30078125 12.609375 C-4.1928125 13.47820312 -5.08484375 14.34703125 -6.00390625 15.2421875 C-6.87273437 16.13421875 -7.7415625 17.02625 -8.63671875 17.9453125 C-9.48234375 18.78320312 -10.32796875 19.62109375 -11.19921875 20.484375 C-11.97539551 21.25378418 -12.75157227 22.02319336 -13.55126953 22.81591797 C-15.87890625 24.3671875 -15.87890625 24.3671875 -18.515625 24.22802734 C-21.63243158 23.09271123 -23.40280205 21.44516608 -25.75390625 19.1171875 C-26.55570312 18.34890625 -27.3575 17.580625 -28.18359375 16.7890625 C-29.87890625 14.3671875 -29.87890625 14.3671875 -29.63671875 11.5703125 C-29.38664062 10.84328125 -29.1365625 10.11625 -28.87890625 9.3671875 C-26.69140625 9.0546875 -26.69140625 9.0546875 -23.87890625 9.3671875 C-21.06640625 11.8671875 -21.06640625 11.8671875 -18.87890625 14.3671875 C-13.960765 12.50371911 -10.84070681 8.33022359 -7.38867188 4.53515625 C-3.49200027 0.44538402 -3.49200027 0.44538402 0 0 Z " fill="#040401" transform="translate(136.87890625,398.6328125)"/>
<path d="M0 0 C3.4375 1 3.4375 1 5.4375 2.6875 C6.82656225 5.89970645 6.49271374 7.6936636 5.4375 11 C3.31318495 13.27605184 1.99643694 13.90218604 -1.0625 14.4375 C-4.46084723 13.84278924 -5.57491034 12.79734842 -7.5625 10 C-8.17225382 6.34147708 -8.00793026 4.69487121 -6 1.5625 C-3.5625 0 -3.5625 0 0 0 Z " fill="#F3F3F3" transform="translate(163.5625,83)"/>
<path d="M0 0 C3.4375 0.9375 3.4375 0.9375 5.4375 2.0625 C7.12135831 5.21973433 6.33452275 7.58861508 5.4375 10.9375 C3.32814525 13.27285705 2.0054316 13.82391368 -1.0625 14.4375 C-3.5625 13.9375 -3.5625 13.9375 -5.875 11.75 C-7.71206543 8.68822428 -8.276437 7.4179429 -7.5625 3.9375 C-5.24143877 0.40948693 -4.27159402 -0.07494025 0 0 Z " fill="#F2F2F2" transform="translate(86.5625,83.0625)"/>
<path d="M0 0 C2.3125 1.625 2.3125 1.625 4 4 C4.60975382 7.65852292 4.44543026 9.30512879 2.4375 12.4375 C0 14 0 14 -3.625 13.875 C-7 13 -7 13 -9 11 C-9.27922749 8.06811139 -9.47143881 5.84609353 -9 3 C-6.40390408 -0.07685443 -3.9263577 -0.6871126 0 0 Z " fill="#F4F4F4" transform="translate(127,83)"/>
</svg>
